<svg xmlns="http://www.w3.org/2000/svg" xmlns:xlink="http://www.w3.org/1999/xlink" viewBox="0 0 277.09 169.7"><defs><style>.cls-1,.cls-5{fill:url(#linear-gradient);}.cls-1{clip-rule:evenodd;}.cls-2,.cls-4{fill:#699f63;}.cls-3{fill:#333;}.cls-3,.cls-4,.cls-5{fill-rule:evenodd;}.cls-6{clip-path:url(#clip-path);}.cls-7{fill:none;}.cls-8{fill:url(#linear-gradient-3);}.cls-9{fill:url(#linear-gradient-4);}.cls-10{fill:url(#linear-gradient-5);}.cls-11{fill:url(#linear-gradient-6);}.cls-12{fill:url(#linear-gradient-7);}.cls-13{fill:url(#linear-gradient-8);}</style><linearGradient id="linear-gradient" x1="113" y1="50.55" x2="89.15" y2="99.19" gradientUnits="userSpaceOnUse"><stop offset="0" stop-color="#41873f"/><stop offset="0.33" stop-color="#418b3d"/><stop offset="0.64" stop-color="#409637"/><stop offset="0.93" stop-color="#3fa92d"/><stop offset="1" stop-color="#3fae2a"/></linearGradient><clipPath id="clip-path"><path id="_Відсічний_контур_" data-name="&lt;Відсічний контур&gt;" class="cls-1" d="M103.86,39.2a3.19,3.19,0,0,0-3.19,0L74.28,54.43a3.19,3.19,0,0,0-1.59,2.76V87.68a3.19,3.19,0,0,0,1.59,2.76l26.39,15.24a3.19,3.19,0,0,0,3.19,0l26.39-15.24a3.19,3.19,0,0,0,1.59-2.76V57.19a3.19,3.19,0,0,0-1.59-2.76Z"/></clipPath><linearGradient id="linear-gradient-3" x1="98.25" y1="76" x2="165.15" y2="26.57" gradientUnits="userSpaceOnUse"><stop offset="0.14" stop-color="#41873f"/><stop offset="0.4" stop-color="#54a044"/><stop offset="0.71" stop-color="#66b748"/><stop offset="0.91" stop-color="#6cc04a"/></linearGradient><linearGradient id="linear-gradient-4" x1="71.76" y1="33.71" x2="132.77" y2="33.71" gradientUnits="userSpaceOnUse"><stop offset="0.09" stop-color="#6cc04a"/><stop offset="0.29" stop-color="#66b748"/><stop offset="0.6" stop-color="#54a044"/><stop offset="0.86" stop-color="#41873f"/></linearGradient><linearGradient id="linear-gradient-5" x1="71.76" y1="72.43" x2="132.77" y2="72.43" xlink:href="#linear-gradient-4"/><linearGradient id="linear-gradient-6" x1="71.76" y1="89.85" x2="132.77" y2="89.85" xlink:href="#linear-gradient-4"/><linearGradient id="linear-gradient-7" x1="71.76" y1="97.72" x2="132.77" y2="97.72" xlink:href="#linear-gradient-4"/><linearGradient id="linear-gradient-8" x1="141.66" y1="49.1" x2="104.03" y2="125.88" xlink:href="#linear-gradient"/></defs><title>icon3</title><g id="Шар_2" data-name="Шар 2"><g id="Шар_1-2" data-name="Шар 1"><path class="cls-2" d="M137,169.7a5.24,5.24,0,0,1-2.62-.7L126,164.06c-1.25-.7-.64-.95-.23-1.09a16.66,16.66,0,0,0,3.78-1.72.64.64,0,0,1,.62,0l6.42,3.81a.82.82,0,0,0,.78,0l25-14.44a.79.79,0,0,0,.38-.68V121.11a.81.81,0,0,0-.39-.69l-25-14.43a.78.78,0,0,0-.77,0l-25,14.43a.8.8,0,0,0-.4.69V150a.77.77,0,0,0,.39.67l6.85,4c3.72,1.86,6-.33,6-2.53V123.57a.72.72,0,0,1,.73-.72h3.17a.72.72,0,0,1,.73.72v28.51c0,5-2.7,7.81-7.41,7.81-1.45,0-2.58,0-5.76-1.57l-6.56-3.78a5.29,5.29,0,0,1-2.62-4.57V121.11a5.27,5.27,0,0,1,2.62-4.56l25-14.46a5.48,5.48,0,0,1,5.26,0l25,14.46a5.28,5.28,0,0,1,2.63,4.56V150a5.3,5.3,0,0,1-2.63,4.57l-25,14.45A5.25,5.25,0,0,1,137,169.7Z"/><path class="cls-2" d="M144.68,149.81c-11,0-13.24-5-13.24-9.24a.72.72,0,0,1,.72-.72h3.24a.72.72,0,0,1,.72.61c.49,3.29,1.94,5,8.57,5,5.27,0,7.52-1.19,7.52-4,0-1.61-.64-2.81-8.83-3.61-6.85-.68-11.08-2.19-11.08-7.67,0-5,4.26-8.06,11.39-8.06,8,0,12,2.78,12.49,8.75a.72.72,0,0,1-.72.79H152.2a.72.72,0,0,1-.7-.57c-.78-3.47-2.67-4.57-7.81-4.57-5.76,0-6.42,2-6.42,3.51,0,1.82.79,2.35,8.56,3.38s11.34,2.46,11.34,7.86S152.61,149.81,144.68,149.81Z"/><path class="cls-2" d="M180.77,119.52a4.82,4.82,0,1,1-4.82-4.82A4.84,4.84,0,0,1,180.77,119.52Zm-8.87,0a4,4,0,1,0,4-4A4,4,0,0,0,171.9,119.51Zm2.23-2.69H176c.64,0,1.89,0,1.89,1.43a1.24,1.24,0,0,1-1,1.33c.74.05.79.54.89,1.22a5.33,5.33,0,0,0,.28,1.43h-1.15c0-.25-.21-1.63-.21-1.71-.07-.31-.18-.46-.56-.46h-.94v2.17h-1Zm1,2.37H176a.73.73,0,0,0,.82-.76c0-.74-.51-.74-.79-.74h-.87Z"/><path class="cls-3" d="M59.47,56.72a3.2,3.2,0,0,0-1.6-2.78L31.33,38.67a3.13,3.13,0,0,0-1.46-.42H29.6a3.17,3.17,0,0,0-1.46.42L1.6,53.93A3.21,3.21,0,0,0,0,56.72L.06,97.83a1.57,1.57,0,0,0,.8,1.38,1.54,1.54,0,0,0,1.59,0l15.77-9a3.23,3.23,0,0,0,1.6-2.78V68.2a3.19,3.19,0,0,1,1.6-2.77l6.71-3.87a3.19,3.19,0,0,1,1.61-.43,3.14,3.14,0,0,1,1.59.43L38,65.42a3.19,3.19,0,0,1,1.6,2.77V87.41a3.24,3.24,0,0,0,1.61,2.78l15.76,9a1.56,1.56,0,0,0,1.6,0,1.6,1.6,0,0,0,.8-1.38Z"/><path class="cls-3" d="M187.12.2a1.6,1.6,0,0,0-2.38,1.4V42.32a1.12,1.12,0,0,1-1.68,1l-6.64-3.83a3.21,3.21,0,0,0-3.2,0L146.67,54.78a3.2,3.2,0,0,0-1.6,2.77V88.19a3.21,3.21,0,0,0,1.6,2.78L173.2,106.3a3.21,3.21,0,0,0,3.21,0L203,91a3.21,3.21,0,0,0,1.6-2.78V11.81A3.2,3.2,0,0,0,202.91,9Zm-2.46,77.92a.8.8,0,0,1-.4.69l-9.11,5.25a.8.8,0,0,1-.8,0l-9.11-5.25a.8.8,0,0,1-.4-.69V67.6a.8.8,0,0,1,.4-.69l9.11-5.26a.8.8,0,0,1,.8,0l9.11,5.26a.8.8,0,0,1,.4.69Z"/><path class="cls-3" d="M275.49,67.33a3.2,3.2,0,0,0,1.59-2.77V57.13a3.21,3.21,0,0,0-1.6-2.77L249.12,39a3.2,3.2,0,0,0-3.21,0L219.38,54.36a3.2,3.2,0,0,0-1.6,2.77V87.77a3.2,3.2,0,0,0,1.62,2.78l26.37,15a3.2,3.2,0,0,0,3.14,0l15.95-8.86a1.6,1.6,0,0,0,0-2.79l-26.7-15.32a1.6,1.6,0,0,1-.81-1.39v-9.6a1.6,1.6,0,0,1,.8-1.39l8.31-4.79a1.6,1.6,0,0,1,1.6,0l8.31,4.79a1.6,1.6,0,0,1,.8,1.39v7.55a1.6,1.6,0,0,0,2.41,1.39Z"/><path class="cls-4" d="M247.13,65.89a.61.61,0,0,1,.62,0l5.09,2.94a.62.62,0,0,1,.31.53v5.88a.62.62,0,0,1-.31.53l-5.09,2.94a.61.61,0,0,1-.62,0L242,75.78a.62.62,0,0,1-.31-.53V69.36a.62.62,0,0,1,.31-.53Z"/><path id="_Відсічний_контур_2" data-name="&lt;Відсічний контур&gt;" class="cls-5" d="M103.86,39.2a3.19,3.19,0,0,0-3.19,0L74.28,54.43a3.19,3.19,0,0,0-1.59,2.76V87.68a3.19,3.19,0,0,0,1.59,2.76l26.39,15.24a3.19,3.19,0,0,0,3.19,0l26.39-15.24a3.19,3.19,0,0,0,1.59-2.76V57.19a3.19,3.19,0,0,0-1.59-2.76Z"/><g class="cls-6"><path class="cls-7" d="M100.62,39.2,74.17,54.43a3.29,3.29,0,0,0-1.7,2.76V87.68a3.08,3.08,0,0,0,.82,2L103,38.88A3.24,3.24,0,0,0,100.62,39.2Z"/><path class="cls-7" d="M103.15,106a3.18,3.18,0,0,0,.74-.31l26.42-15.24A3.25,3.25,0,0,0,132,87.68V57.19A3.15,3.15,0,0,0,131,55Z"/><path class="cls-8" d="M130.3,54.43,103.83,39.2a3.17,3.17,0,0,0-.83-.33L73.29,89.71a3.63,3.63,0,0,0,.89.73l26.51,15.24a3.22,3.22,0,0,0,2.46.31L131,55A3.47,3.47,0,0,0,130.3,54.43Z"/><path class="cls-7" d="M132,87.68V57.19a3.26,3.26,0,0,0-1.67-2.76L103.83,39.2a3.17,3.17,0,0,0-1-.36l29,49.56A2.93,2.93,0,0,0,132,87.68Z"/><path class="cls-7" d="M74.17,54.43a3.29,3.29,0,0,0-1.7,2.76V87.68a3.31,3.31,0,0,0,1.71,2.76l26.51,15.24a3.21,3.21,0,0,0,2,.4L74.33,54.34Z"/><polygon class="cls-9" points="99.79 33.61 99.43 33.81 99.92 33.81 99.79 33.61"/><path class="cls-10" d="M130.31,90.44a3.34,3.34,0,0,0,1.56-2l-29-49.56a3.23,3.23,0,0,0-2.24.36L74.33,54.34l28.4,51.73a3.19,3.19,0,0,0,1.17-.4Z"/><polygon class="cls-11" points="132.77 89.95 132.6 89.65 132.6 90.05 132.77 89.95"/><path class="cls-12" d="M130.31,90.44,103.9,105.68a3.19,3.19,0,0,1-1.17.4l.53,1,29.34-17v-.4l-.73-1.24A3.34,3.34,0,0,1,130.31,90.44Z"/><path class="cls-13" d="M130.31,90.44,103.9,105.68a3.19,3.19,0,0,1-1.17.4l.53,1,29.34-17v-.4l-.73-1.24A3.34,3.34,0,0,1,130.31,90.44Z"/></g></g></g></svg>