<svg xmlns="http://www.w3.org/2000/svg" viewBox="0 0 106.51 235.72"><defs><style>.cls-1{fill:#da4648;}</style></defs><title>icon5</title><g id="Шар_2" data-name="Шар 2"><g id="Шар_1-2" data-name="Шар 1"><g id="Page-1"><g id="gulp"><g id="Gulp-Logo"><path id="Cup" class="cls-1" d="M52.76,186a129.25,129.25,0,0,1-29.61-3.31,56.92,56.92,0,0,1-8.47-2.62l6.84,11.69L24.2,228.3c0,4.1,13,7.42,29.06,7.42s29.06-3.32,29.06-7.42l2.12-36.93L90.92,180a56.33,56.33,0,0,1-8.55,2.65A129.24,129.24,0,0,1,52.76,186ZM91.14,67.12a288.62,288.62,0,0,1-37.88,2.2,288.62,288.62,0,0,1-37.88-2.2A71,71,0,0,1,3.58,64.66a17.09,17.09,0,0,1-2.9-1.2L7,121.25q.44-1.49,1-3a56.5,56.5,0,0,1,2.56-6,52.74,52.74,0,0,1,3.16-5.5,42.51,42.51,0,0,1,3.64-4.77,29,29,0,0,1,4-3.75,18.84,18.84,0,0,1,4.1-2.45,10.39,10.39,0,0,1,4.1-.88A8.84,8.84,0,0,1,34,96.26a13,13,0,0,1,4.09,4.14,3.31,3.31,0,0,1,.55,1.29,7.05,7.05,0,0,1,.12,1.23,3.29,3.29,0,0,1-.66,2.16,2,2,0,0,1-1.56.79A2,2,0,0,1,35,105a16.44,16.44,0,0,1-1.58-2.48,6,6,0,0,0-1.81-2.12,3.82,3.82,0,0,0-2.15-.65,6.63,6.63,0,0,0-3.84,1.49,22.33,22.33,0,0,0-4,3.94,43.2,43.2,0,0,0-3.84,5.6,58.48,58.48,0,0,0-3.25,6.45,46.11,46.11,0,0,0-2.25,6.52,23.16,23.16,0,0,0-.84,5.77,13.8,13.8,0,0,0,.12,1.75,5.91,5.91,0,0,0,.44,1.63,3.28,3.28,0,0,0,.87,1.2,2.08,2.08,0,0,0,1.4.47,4.72,4.72,0,0,0,2.16-.64,16.23,16.23,0,0,0,2.51-1.67,31.49,31.49,0,0,0,2.61-2.35q1.31-1.31,2.44-2.65t2-2.57a15.22,15.22,0,0,0,1.31-2.15l2.39-7.16a3.36,3.36,0,0,1,1.14-1.64,2.53,2.53,0,0,1,1.45-.49,2.25,2.25,0,0,1,.72.12A1.76,1.76,0,0,1,34,114.45a2.53,2.53,0,0,1,.17,1,13.91,13.91,0,0,1-.26,2.74,21.78,21.78,0,0,1-.66,2.5q-.4,1.22-.89,2.45t-1,2.57a5.84,5.84,0,0,0-.37,1q-.27.81-.66,2t-.84,2.73l-.93,3.08q-.48,1.57-.91,3.08T27,140.26l-.58,2c-.15.55-.25.87-.28,1a6.34,6.34,0,0,1-.41,1.08,7.14,7.14,0,0,1-.67,1.13,4.11,4.11,0,0,1-.85.88,1.56,1.56,0,0,1-1,.35,1.34,1.34,0,0,1-1.19-.55,3.83,3.83,0,0,1-.37-2v-.43a4.32,4.32,0,0,1,0-.46,10.8,10.8,0,0,1,.39-1.83q.36-1.34.86-3t1.08-3.5l1-3.24q-1.36,1.52-3,3a31.89,31.89,0,0,1-3.27,2.71,19.36,19.36,0,0,1-3.37,2,8,8,0,0,1-3.27.76,5.84,5.84,0,0,1-3.1-.79c-.16-.1-.3-.2-.45-.31l3.49,36.64c.91,2.28,18,7.88,40.62,7.88s39.72-5.61,40.62-7.89l5-43.56-1.21,1.11a52.64,52.64,0,0,1-4.08,3.46,18.39,18.39,0,0,1-3.74,2.24,9.7,9.7,0,0,1-3.91.79,4.73,4.73,0,0,1-3-.85,2.84,2.84,0,0,1-1.07-2.34v-.23a1.55,1.55,0,0,1,0-.26,5.53,5.53,0,0,1,.8-2.1,24.14,24.14,0,0,1,1.67-2.47q1-1.28,2.08-2.59t2-2.48a24,24,0,0,0,1.55-2.15,3.23,3.23,0,0,0,.62-1.58.72.72,0,0,0-.26-.58,1.35,1.35,0,0,0-.85-.21,4.82,4.82,0,0,0-2.12.53,10.54,10.54,0,0,0-2.16,1.43,19.56,19.56,0,0,0-2.08,2.06,30.32,30.32,0,0,0-1.9,2.4q-.89,1.25-1.62,2.51t-1.25,2.33l-.44.94q-.28.61-.62,1.37T76.18,137q-.37.81-.68,1.52l-.55,1.28q-.25.56-.35.78t-.42,1l-.68,1.78-.81,2.15-.8,2.13-.66,1.77c-.19.51-.31.85-.36,1a11.11,11.11,0,0,1-.6,1.49,6.14,6.14,0,0,1-.8,1.23,3.65,3.65,0,0,1-1,.85,2.63,2.63,0,0,1-1.3.32,2.53,2.53,0,0,1-1.53-.44,2,2,0,0,1-.6-1.69,5.31,5.31,0,0,1,.15-1.25,11.13,11.13,0,0,1,.39-1.26c.15-.42.31-.82.48-1.22s.31-.78.45-1.14q1.39-3,2.83-6.11t2.76-6.06c.18-.42.35-.83.53-1.24l-.16.16A34.13,34.13,0,0,1,69.11,137a17.66,17.66,0,0,1-3.29,2,7.76,7.76,0,0,1-3.18.73,4.1,4.1,0,0,1-1.76-.33,2.94,2.94,0,0,1-1.13-.91,3.65,3.65,0,0,1-.61-1.37c0-.18-.07-.37-.09-.56-.3.23-.6.46-.91.68A18.45,18.45,0,0,1,55,139a6.94,6.94,0,0,1-2.78.69,2.63,2.63,0,0,1-2-.82,4.06,4.06,0,0,1-.77-2.8,15.35,15.35,0,0,1,.41-3.26,16.65,16.65,0,0,1-1.67,2.4,14.65,14.65,0,0,1-2.29,2.22A11.43,11.43,0,0,1,43,139.06a9.44,9.44,0,0,1-3.47.62,6.21,6.21,0,0,1-1.63-.21,3.42,3.42,0,0,1-1.38-.73,3.67,3.67,0,0,1-1-1.39,5.72,5.72,0,0,1-.36-2.18s0-.33.1-.93a19.85,19.85,0,0,1,.66-2.83q.55-1.93,1.71-5T41,118.94a4.11,4.11,0,0,1,1.25-1.66,2.59,2.59,0,0,1,1.53-.5,2.82,2.82,0,0,1,.75.11,2.41,2.41,0,0,1,.72.34,1.81,1.81,0,0,1,.54.58,1.57,1.57,0,0,1,.21.81,2.11,2.11,0,0,1-.08.58,6.94,6.94,0,0,1-.55,1.36q-.42.84-1,1.92t-1.19,2.33Q42.51,126,42,127.38A25.84,25.84,0,0,0,41,130.1a11.74,11.74,0,0,0-.44,2.69,2,2,0,0,0,.26,1,.9.9,0,0,0,.85.46,5.37,5.37,0,0,0,3.19-1.1,14.17,14.17,0,0,0,2.8-2.73,26.16,26.16,0,0,0,2.33-3.5q1-1.87,1.73-3.43a17.36,17.36,0,0,0,.86-2.22,22.11,22.11,0,0,1,.81-2.19,6.75,6.75,0,0,1,1-1.68,1.78,1.78,0,0,1,1.41-.67,1.75,1.75,0,0,1,1.47.7,2.66,2.66,0,0,1,.54,1.67,4.77,4.77,0,0,1-.35,1.51q-.35,1-.87,2.19t-1.14,2.63q-.62,1.4-1.14,2.85a28.22,28.22,0,0,0-.87,2.83,10.6,10.6,0,0,0-.35,2.57,1,1,0,0,0,1.13,1.1,4.93,4.93,0,0,0,2-.55,13.53,13.53,0,0,0,2.48-1.54l.65-.52a21.14,21.14,0,0,1,.85-2.76q.9-2.38,1.83-4.72l1.7-4.29,7.79-19.64a3.29,3.29,0,0,1,1.25-1.68,3,3,0,0,1,1.58-.49,2.29,2.29,0,0,1,1.45.52,2,2,0,0,1,.66,1.68,3.43,3.43,0,0,1-.22,1.16,14,14,0,0,1-.55,1.31q-.64,1.43-1.53,3.5t-1.9,4.51q-1,2.44-2.08,5.07L68.1,121.5q-1,2.5-1.9,4.74l-1.53,3.88a17.1,17.1,0,0,0-.55,1.63,6,6,0,0,0-.27,1.66,1.49,1.49,0,0,0,.15.73.62.62,0,0,0,.59.27,3.33,3.33,0,0,0,1.35-.38,13.79,13.79,0,0,0,1.75-1q.94-.62,2-1.43t2-1.67q1-.87,1.92-1.74t1.63-1.6a1.15,1.15,0,0,1,.4-.26c.29-.86.55-1.71.79-2.54q.21-.55.57-1.55a21.34,21.34,0,0,1,.82-2,8.48,8.48,0,0,1,1-1.69,1.63,1.63,0,0,1,1.25-.72,2,2,0,0,1,1.49.47A1.9,1.9,0,0,1,82,119.7a5,5,0,0,1-.05.58c0,.26-.08.54-.13.84s-.11.57-.17.84a3.84,3.84,0,0,1-.17.58q.95-1,2.06-2.05a21.16,21.16,0,0,1,2.29-1.84,13.22,13.22,0,0,1,2.42-1.34,6.35,6.35,0,0,1,2.47-.52,6,6,0,0,1,1.68.24,4.84,4.84,0,0,1,1.49.72A3.74,3.74,0,0,1,95,118.93a3.27,3.27,0,0,1,.41,1.66,6.57,6.57,0,0,1-.63,2.66,19.3,19.3,0,0,1-1.58,2.85q-1,1.43-2.06,2.79t-2.07,2.47l-1.62,1.89a2.84,2.84,0,0,0-.68,1.05.8.8,0,0,0,.23.59,1.07,1.07,0,0,0,.77.23,3,3,0,0,0,1.29-.49,21.91,21.91,0,0,0,2.38-1.69q1.53-1.2,3.88-3.23c1.08-.92,2.33-2,3.75-3.28l6.8-63A17,17,0,0,1,103,64.66,70.94,70.94,0,0,1,91.14,67.12ZM53.22,52.18C23.83,52.18,0,55.46,0,59.52s23.83,7.34,53.22,7.34,53.22-3.29,53.22-7.34S82.62,52.18,53.22,52.18Zm21.25,9.49c0,1-2.83,1.72-6.33,1.72s-6.33-.77-6.33-1.72,2.83-1.72,6.33-1.72S74.48,60.71,74.48,61.66Z"/><path id="Straw" class="cls-1" d="M63.11,60.9a.29.29,0,0,0,0,.15c0,.62,2.28,1.11,5.09,1.11s5.09-.5,5.09-1.11l6.65-27L106.34,6.17l0,0c.56-.63-.58-2.59-2.46-4.27S100-.38,99.35.26h0L71.12,30Z"/></g></g></g></g></g></svg>