<svg xmlns="http://www.w3.org/2000/svg" viewBox="0 0 172.52 185.3"><defs><style>.cls-1{fill:#dd0031;}.cls-2{fill:#c3002f;}.cls-3{fill:#fff;}</style></defs><title>icon2</title><g id="Шар_2" data-name="Шар 2"><g id="Шар_1-2" data-name="Шар 1"><polygon class="cls-1" points="86.26 0 86.26 0 86.26 0 0 30.76 13.16 144.81 86.26 185.3 86.26 185.3 86.26 185.3 159.36 144.81 172.52 30.76 86.26 0"/><polygon class="cls-2" points="86.26 0 86.26 20.57 86.26 20.48 86.26 114.33 86.26 114.33 86.26 185.3 86.26 185.3 159.36 144.81 172.52 30.76 86.26 0"/><path class="cls-3" d="M86.26,20.48,32.34,141.38H52.44l10.84-27.05H109l10.84,27.05H140L86.26,20.48ZM102,97.65H70.51L86.26,59.76Z"/></g></g></svg>