<svg xmlns="http://www.w3.org/2000/svg" viewBox="0 0 173.21 195.96"><defs><style>.cls-1{fill:#fff;}.cls-2{fill:#8ed6fb;}.cls-3{fill:#1c78c0;}</style></defs><title>icon4</title><g id="Шар_2" data-name="Шар 2"><g id="Шар_1-2" data-name="Шар 1"><path class="cls-1" d="M86.6,0l86.6,49v98L86.6,196,0,147V49Z"/><path class="cls-2" d="M157.74,143.6,89.47,182.22V152.15L132,128.74l25.73,14.86Zm4.68-4.23V58.61L137.45,73V125l25,14.41ZM15.19,143.6l68.28,38.62V152.15L40.91,128.74Zm-4.68-4.23V58.61L35.49,73V125Zm2.93-86,70-39.61V42.83L38.6,67.51l-.36.2Zm146,0-70-39.61V42.83l44.87,24.66.36.2,24.79-14.32Z"/><path class="cls-3" d="M83.47,145.3l-42-23.09V76.49l42,24.24Zm6,0,42-23.07V76.49l-42,24.24ZM44.33,71.21,86.47,48l42.14,23.16L86.47,95.53,44.33,71.21Z"/></g></g></svg>