<svg xmlns="http://www.w3.org/2000/svg" viewBox="0 0 264.23 154.79"><defs><style>.cls-1{fill:#efe8e8;}.cls-2{fill:#474545;}.cls-2,.cls-3,.cls-4{stroke:#000;}.cls-2,.cls-3,.cls-4,.cls-6{stroke-miterlimit:10;}.cls-3{fill:none;stroke-width:3px;}.cls-4{fill:#3f3d3d;}.cls-5{fill:#998f8f;}.cls-6{fill:#514e4a;stroke:#47433d;stroke-width:6px;}</style></defs><title>laptop</title><g id="Шар_2" data-name="Шар 2"><g id="Шар_1-2" data-name="Шар 1"><polygon class="cls-1" points="170.72 148.23 185.26 148.23 260.13 122.65 262.14 118.61 260.07 115 245.09 112.49 191.08 103.04 169.62 99.57 168.63 117.35 170.72 148.23"/><path class="cls-2" d="M180.9,145.23,257.8,121s4.1-2.17,1.88-5.25,2.12,1.93,2.12,1.93l.92,2.5L261,124.27l-5.91,2.32L179.7,150.45Z"/><path class="cls-3" d="M258.58,125.28,175.5,151.79,34.36,128.06l98.52-34.9s122.4,20.57,125.7,22S266,121.26,258.58,125.28Z"/><polygon points="163.3 102.58 199.74 108.75 182.76 115.18 151.72 110.76 163.3 102.58"/><path d="M163.3,102.58c3,.36,6,.78,9.06,1.18s6.08.83,9.14,1.27q9.17,1.32,18.4,2.81l3.42.55-3.25,1.25-8.48,3.26q-4.24,1.63-8.49,3.21l-.24.09-.25,0c-5.17-.74-10.34-1.53-15.5-2.33s-10.32-1.65-15.47-2.53l-1.35-.23,1.12-.73,6-3.92Q160.36,104.45,163.3,102.58Zm0,0q-2.85,2.23-5.67,4.36L152,111.2l-.23-1q7.79.89,15.56,1.89c5.18.67,10.36,1.35,15.54,2.09l-.49.05q4.24-1.63,8.49-3.21l8.51-3.17.17,1.8q-9-1.61-18-3.37c-3-.59-6-1.18-9.08-1.82S166.37,103.25,163.3,102.58Z"/><polygon class="cls-4" points="181.99 142.57 227.38 127.59 157.12 113.39 138.75 125.89 160.68 142.57 181.99 142.57"/><polygon class="cls-5" points="180.16 129.52 185.26 130.76 182.71 134.16 178.62 131.84 180.16 129.52"/><polygon class="cls-5" points="176.84 123.35 181.94 124.58 179.39 127.98 175.3 125.66 176.84 123.35"/><path class="cls-6" d="M11.69,3.21S4.27,1.67,3,6.92,30.22,126.13,30.22,126.13s.62,4.63,4.63,4.94,135.89,20.69,135.89,20.69,7.41.62,8.65-4.32S157.46,30.7,157.46,30.7s-.31-9.27-10.19-9.57C140.17,20.45,11.69,3.21,11.69,3.21Z"/><polygon class="cls-5" points="211.05 125.66 216.14 126.9 213.59 130.29 209.5 127.98 211.05 125.66"/><polygon class="cls-5" points="203.63 124.27 208.73 125.51 206.18 128.91 202.09 126.59 203.63 124.27"/><polygon class="cls-5" points="207.17 129.52 211.65 130.39 209.41 132.78 205.81 131.15 207.17 129.52"/><polygon class="cls-5" points="196.38 123.35 201.47 124.58 198.93 127.98 194.83 125.66 196.38 123.35"/><polygon class="cls-5" points="199.7 129.52 204.79 130.76 202.25 134.16 198.15 131.84 199.7 129.52"/><polygon class="cls-5" points="188.99 121.03 194.08 122.27 191.53 125.66 187.44 123.35 188.99 121.03"/><polygon class="cls-5" points="192.31 127.21 197.4 128.44 194.85 131.84 190.76 129.52 192.31 127.21"/><polygon class="cls-5" points="194.32 133.38 198.73 134.36 196.52 137.05 192.98 135.22 194.32 133.38"/><polygon class="cls-5" points="187.88 131.07 192.98 132.3 190.43 135.7 186.34 133.38 187.88 131.07"/><polygon class="cls-5" points="184.56 125.66 189.66 126.9 187.11 130.29 183.02 127.98 184.56 125.66"/><polygon class="cls-5" points="181.24 119.64 186.34 120.88 183.79 124.27 179.7 121.96 181.24 119.64"/><polygon class="cls-5" points="183.48 135.7 188.58 136.94 186.03 140.33 181.94 138.02 183.48 135.7"/></g></g></svg>