<svg xmlns="http://www.w3.org/2000/svg" viewBox="0 0 855 443.06"><defs><style>.cls-1{fill:#264de4;}.cls-2{fill:#2965f1;}.cls-3{fill:#ebebeb;}.cls-4{fill:#fff;}.cls-5{fill:#e44d26;}.cls-6{fill:#f16529;}.cls-7{fill:#d4b830;}.cls-8{fill:#fed73c;}.cls-9{fill:#4d4d4d;}</style></defs><title>logo</title><g id="Шар_2" data-name="Шар 2"><g id="Шар_2-2" data-name="Шар 2"><polygon id="polygon2989" class="cls-1" points="155.66 353.51 28.37 318.17 0 0 311.71 0 283.31 318.12 155.66 353.51"/><polygon id="polygon2991" class="cls-2" points="259 297.87 283.27 26.02 155.85 26.02 155.85 326.46 259 297.87"/><polygon id="polygon2993" class="cls-3" points="65.03 144.02 68.53 183.04 155.85 183.04 155.85 144.02 65.03 144.02"/><polygon id="polygon2995" class="cls-3" points="58 65.04 61.55 104.06 155.85 104.06 155.85 65.04 155.72 65.04 58 65.04"/><polygon id="polygon2997" class="cls-3" points="155.85 245.37 155.68 245.41 112.22 233.68 109.44 202.55 88.33 202.55 70.27 202.55 75.74 263.82 155.67 286.01 155.85 285.97 155.85 245.37"/><polygon id="polygon3005" class="cls-4" points="246.43 144.02 253.47 65.04 155.72 65.04 155.72 104.06 210.71 104.06 207.15 144.02 155.72 144.02 155.72 183.04 203.77 183.04 199.24 233.65 155.72 245.4 155.72 286 235.72 263.82 236.3 257.23 245.47 154.5 246.43 144.02"/><polygon id="polygon3028" class="cls-5" points="855 0.22 826.6 318.35 698.96 353.73 571.66 318.39 543.29 0.22 855 0.22"/><polygon id="polygon3030" class="cls-6" points="699.15 326.68 802.29 298.09 826.56 26.24 699.15 26.24 699.15 326.68"/><polygon id="polygon3032" class="cls-3" points="643.94 104.28 699.15 104.28 699.15 65.26 699.01 65.26 601.3 65.26 602.23 75.73 611.82 183.27 699.15 183.27 699.15 144.24 647.51 144.24 643.94 104.28"/><polygon id="polygon3034" class="cls-3" points="652.74 202.78 631.62 202.78 613.57 202.78 619.03 264.05 698.97 286.24 699.15 286.19 699.15 245.59 698.98 245.63 655.52 233.9 652.74 202.78"/><polygon id="polygon3044" class="cls-4" points="699.01 183.27 747.06 183.27 742.53 233.88 699.01 245.62 699.01 286.22 779.01 264.05 779.6 257.46 788.77 154.72 789.72 144.24 779.2 144.24 699.01 144.24 699.01 183.27"/><polygon id="polygon3046" class="cls-4" points="699.01 104.19 699.01 104.28 793.14 104.28 793.14 104.28 793.27 104.28 794.05 95.51 795.83 75.73 796.76 65.26 699.01 65.26 699.01 89.5 699.01 104.19"/><polygon class="cls-7" points="423.59 443.06 284.51 404.25 253.78 56.55 595.01 56.55 562.66 404.25 423.59 443.06"/><polygon class="cls-8" points="423.61 88.09 560.87 88.09 534.05 378.39 423.61 409.94 423.61 88.09"/><polygon points="412.56 129.11 319.48 129.11 322.63 168.55 369.96 168.55 371.54 312.13 347.88 308.97 344.72 274.26 302.12 274.26 308.43 338.95 412.56 361.04 412.56 129.11"/><polygon class="cls-9" points="543.51 129.11 436.23 129.11 436.23 252.17 493.03 252.17 486.72 307.39 436.23 316.86 436.23 361.04 526.16 340.52 537.2 211.15 478.83 211.15 478.83 168.55 540.36 168.55 543.51 129.11"/></g></g></svg>