<?xml version="1.0" encoding="utf-8"?>
<!-- Generator: Adobe Illustrator 21.0.2, SVG Export Plug-In . SVG Version: 6.00 Build 0)  -->
<svg version="1.1" xmlns="http://www.w3.org/2000/svg" xmlns:xlink="http://www.w3.org/1999/xlink" x="0px" y="0px"
	 viewBox="0 0 595.3 841.9" style="enable-background:new 0 0 595.3 841.9;" xml:space="preserve">
<style type="text/css">
	.st0{display:none;}
	.st1{fill:#FFDFD4;stroke:#000000;stroke-width:3;stroke-miterlimit:10;}
	.st2{fill:#64A6D8;stroke:#000000;stroke-width:3;stroke-miterlimit:10;}
	.st3{fill:none;stroke:#000000;stroke-width:3;stroke-miterlimit:10;}
	.st4{fill:#FFDFD4;}
	.st5{fill:#DBAF63;}
	.st6{fill:#39B54A;stroke:#000000;stroke-width:3;stroke-miterlimit:10;}
	.st7{fill:#FFDFD4;stroke:#000000;stroke-miterlimit:10;}
	.st8{stroke:#000000;stroke-miterlimit:10;}
	.st9{fill:none;stroke:#000000;stroke-width:2;stroke-miterlimit:10;}
</style>
<g id="Шар_1" class="st0">
</g>
<g id="Шар_2">
	<path class="st1" d="M164.8,640.1l-17.3,2c0,0-5.1,2-4.1,6.1c1,4.1,9.2,5.1,9.2,5.1s-6.1,5.1-5.1,8.2c1,3.1,3.1,5.1,8.2,5.1
		c-4.1,2-2,8.2-2,8.2s3.1,4.1,13.3,2c-5.1,2-10.2,2-8.2,8.2s21.4,1,21.4,1s14.3,1,23.5-1c9.2-2,24.5-7.1,24.5-7.1s4.1-3.1,14.3-6.1
		c10.2-3.1,11.2-9.2,11.2-9.2L164.8,640.1z"/>
	<g>
		<path class="st2" d="M408.1,515.1c0,0,39.8-6.1,66.3-2c26.5,4.1,40.8,8.2,40.8,8.2s21.4,5.1,20.4,21.4c-1,16.3-4.1,28.6-4.1,28.6
			s1,15.3-19.4,27.5c-20.4,12.2-49,26.5-49,26.5s-15.3,6.1-42.8,11.2c-15.3,3.1-18.4,5.1-22.4,7.1c-6.1,0-8.2-6.1-41.8-4.1
			c-10.2-6.1-27.5-8.2-27.5-8.2s2,24.5-13.3,39.8c-15.3,15.3-17.3,12.2-17.3,12.2s-14.3,0-27.5-6.1s-42.8-17.3-67.3-22.4
			s-44.9-12.2-55.1-14.3c-10.2-2-25.5-3.1-25.5-3.1s-28.6-19.4-38.8-29.6c-10.2-10.2-24.5-27.5-12.2-60.2s71.4-26.5,71.4-26.5
			l40.8,1c0,0,8.2-1,16.3,2c8.2,3.1,32.6,20.4,32.6,20.4l55.1,19.4l47.9-5.1l39.8-25.5l20.4-19.4L408.1,515.1z"/>
		<g>
			<path d="M128.6,539.5c2.2-0.5,4.5-0.3,6.7-0.1c2.2,0.2,4.4,0.7,6.6,1.1c4.4,1,8.6,2.4,12.8,4c2.1,0.7,4.2,1.6,6.3,2.4l6.2,2.7
				c4.1,1.8,8.2,3.6,12.3,5.4c16.4,7.1,32.9,13.8,49.5,20.5l12.4,5l6.2,2.5c2.1,0.9,4.1,1.8,6.2,2.7L266,591l6.1,2.7l6.1,2.8
				l6.1,2.8c2,0.8,4.1,1.7,6.1,2.5c4.1,1.6,8.3,3.1,12.5,4.5c2.1,0.7,4.2,1.3,6.4,1.9c1.1,0.3,2.1,0.5,3.2,0.8l1.7,0.4
				c0.6,0.1,1.1,0.4,1.7,0.5c2.2,0.8,4.3,1.9,6.1,3.4c1.8,1.5,3.3,3.4,4.1,5.7l0,0l0,0c0.5,3.8,1.1,7.5,1.6,11.3l0,0.1l-0.3,0.1
				l0-0.1c-0.9-3.7-1.7-7.4-2.5-11.1l0,0.1c-0.4-0.9-1-1.8-1.6-2.6c-0.7-0.8-1.4-1.5-2.3-2.2c-1.7-1.3-3.7-2.2-5.7-2.8
				c-0.5-0.1-1-0.3-1.6-0.4l-1.6-0.3c-1.1-0.2-2.2-0.4-3.3-0.6c-2.2-0.5-4.4-1.1-6.6-1.7c-4.3-1.2-8.6-2.6-12.8-4.2
				c-2.1-0.8-4.2-1.5-6.3-2.4l-6.1-2.8l-6.1-2.8l-6.1-2.8l-12.1-5.7c-2-0.9-4.1-1.9-6.1-2.8l-6.2-2.6l-12.4-5.2
				c-16.5-7-32.9-14-49.2-21.3c-4.1-1.9-8.1-3.7-12.2-5.6l-6.1-2.8c-2.1-0.9-4.1-1.8-6.2-2.6c-4.1-1.6-8.4-3.1-12.7-4.2
				c-2.2-0.5-4.3-1-6.5-1.3c-2.2-0.3-4.5-0.5-6.6,0l-0.1,0l-0.1-0.3L128.6,539.5z"/>
		</g>
		<g>
			<path d="M138.8,534.4c1.4-0.6,3-0.7,4.5-0.8c1.5,0,3.1,0.2,4.5,0.5c3,0.6,5.7,2.3,8.1,4c1.3,0.8,2.4,1.8,3.6,2.7l0.8,0.8
				c0.3,0.3,0.5,0.6,0.8,0.9c0.5,0.6,0.9,1.3,1.2,2c0.3,0.7,0.6,1.2,1,1.7c0.4,0.5,1,1,1.5,1.4c1.1,0.9,2.3,1.7,3.5,2.5l-0.1,0.3
				c-1.3-0.6-2.7-1.2-3.9-2c-0.6-0.4-1.3-0.8-1.9-1.3c-0.6-0.5-1.1-1.2-1.5-1.9c-0.4-0.6-0.7-1.1-1.2-1.6c-0.3-0.2-0.5-0.4-0.8-0.7
				l-0.8-0.6c-1.1-0.8-2.3-1.6-3.6-2.3c-1.2-0.7-2.5-1.3-3.8-1.7c-1.3-0.5-2.6-1-3.9-1.4c-2.6-1-5.3-1.7-8.2-2.3L138.8,534.4z"/>
		</g>
		<g>
			<path d="M280,580c-3.4-1.7-6.6-3.8-9.6-6c-3.1-2.2-5.8-4.8-8.6-7.2l-8.5-7.4c-2.8-2.5-5.6-5-8.4-7.5l0.2-0.2
				c3.1,2.1,6.1,4.4,9.2,6.5l9.1,6.7c3,2.2,6.2,4.3,9,6.8c2.8,2.5,5.5,5.1,8,8.1L280,580z"/>
		</g>
		<g>
			<path d="M337.2,579.9c1.6-3,3.4-5.8,5.3-8.5c1.9-2.7,3.9-5.4,6-8c2.1-2.6,4.2-5.1,6.5-7.6c2.3-2.5,4.6-4.8,7.2-7
				c-1.6,3-3.4,5.8-5.3,8.5c-1.9,2.7-3.9,5.4-6,8c-2.1,2.6-4.2,5.1-6.5,7.6C342.1,575.3,339.8,577.7,337.2,579.9z"/>
		</g>
		<path class="st3" d="M310.2,610c0,0-2-3.1,13.3-9.2s28.6-10.2,28.6-10.2s14.3-9.2,20.4-14.3s42.8-21.4,42.8-21.4
			s15.3-7.1,19.4-11.2s17.3-12.2,17.3-12.2"/>
		<g>
			<path d="M458,539.6c-2.6-0.3-5.1,0.3-7.5,1.1c-2.4,0.8-4.7,2.1-7,3.2c-2.3,1.1-4.7,2.2-7.1,3.2c-1.2,0.5-2.5,1-3.7,1.4
				c-1.3,0.4-2.6,0.7-4.1,0.8v-3c1.1,0,2.3-0.1,3.5-0.4c1.2-0.2,2.4-0.6,3.7-0.9c2.4-0.7,4.9-1.6,7.3-2.5l3.6-1.3
				c1.2-0.4,2.5-0.9,3.8-1.2C452.8,539.4,455.5,539.1,458,539.6z"/>
		</g>
	</g>
	<g>
		<g>
			<g>
				<path class="st1" d="M468.5,454.8c0,0,40.5,24.5,46.2,30.1c4.2-18.9,16.6-28.4,16.6-28.4s6.4-7.8,18.4-10.1s3.9,7.8,3.9,7.8
					s-20.2,3.1-9.4,18.4s18.1-3.9,18.1-3.9s0.4-6.2-4.4-12.9c-4.8-6.7,3.3-7.5,3.3-7.5s9.1-0.9,13.1,18.1c1,12.6,1.4,13.2,1.4,13.2
					s1.6-0.6,3.1-3.5c0.2-0.4,0.4-0.8,0.6-1.3c0.6-1.5,1.1-3.5,1.4-6c1.1-9.3,8.7-5,8.7-5s4.9,7.7,0,19.5c2.2,1.8,2.7,5.9,2.7,5.9
					s-1.2,8.3-8.9,13.2c1.6,6,0.8,8.1,0.8,8.1s-5.1,9.8-32.3,14.6c-28.6,0.9-37.4-4.4-37.4-4.4l-67.4-17.7c0,0-23.6-9.9-28.2-14.5
					c-4.6-4.7-8.6-13.5-8.6-13.5l-13.8-34.5l45.2-19l7.4,2.3c0,0-3.6,4.5-0.7,13.4c3,8.9,7.3,11.5,7.3,11.5L468.5,454.8z"/>
			</g>
			<g>
				<path class="st4" d="M441.2,453.7c0,0-7.8-2-11.4,1.7"/>
				<path d="M441.2,453.7c-0.6,0.3-1.1,0.5-1.6,0.7c-0.5-0.1-0.9-0.1-1.4-0.2c-0.9-0.1-1.9-0.1-2.8,0c-0.9,0.1-1.8,0.2-2.7,0.5
					c-0.4,0.2-0.8,0.3-1.2,0.6c-0.5-0.1-1,0-1.7,0.1c0.1-0.6,0.3-1.2,0.6-1.8c0.5-0.3,1-0.5,1.5-0.8c1.1-0.4,2.1-0.6,3.2-0.7
					c1.1-0.1,2.1-0.1,3.2,0c0.5,0,1,0.1,1.6,0.2C440.3,452.8,440.8,453.1,441.2,453.7z"/>
			</g>
		</g>
		<g>
			<path class="st5" d="M561.3,488c0,0,5.5-0.3,9.2-3.2c3.7-2.9,6.7-6.3,6.7-6.3l1.5-2.3"/>
			<path d="M561.3,488l2.1-1.6c0.3-0.4,0.7-0.3,1.1-0.4c0.4-0.1,0.7-0.2,1.1-0.3c1.4-0.5,2.7-1.1,3.8-1.9c1.2-0.9,2.4-2,3.5-3
				c1.1-1.1,2.2-2.2,3.3-3.3l-0.1,0.2c0.4-0.2,0.9-0.5,1.3-0.7c0.5-0.2,0.9-0.5,1.4-0.7c0,0.5,0,1.1-0.1,1.6c0,0.5-0.1,1-0.2,1.5
				l0,0l-0.1,0.1c-1.1,1.2-2.3,2.3-3.4,3.5c-1.2,1.1-2.4,2.2-3.7,3.2c-1.5,1.1-3.1,1.8-4.7,2.3c-0.4,0.1-0.8,0.2-1.2,0.3
				c-0.4,0.1-0.8,0.4-1.3,0.1C563,488.8,562.1,488.5,561.3,488z"/>
		</g>
		<g>
			<path class="st5" d="M533,490.4c0,0-12.8,0.6-14.9,10.9"/>
			<path d="M533,490.4l-2.2,1.8c-0.8,0.1-1.5,0.3-2.2,0.6c-1.5,0.5-2.9,1.1-4.1,1.9c-1.3,0.8-2.3,1.8-3.2,3l-0.6,0.9
				c-0.2,0.3-0.3,0.7-0.4,1c-0.2,0.1-0.4,0.2-0.5,0.4c-0.2,0.1-0.3,0.3-0.5,0.4c-0.3,0.3-0.7,0.6-1.1,1c-0.2-0.5-0.3-0.9-0.4-1.4
				c-0.1-0.3-0.1-0.5-0.2-0.8c0-0.2,0-0.5,0-0.8c0.2-0.4,0.4-0.9,0.6-1.3l0.8-1.2c1.1-1.5,2.5-2.8,4-3.8c1.5-1,3.2-1.7,4.9-2.2
				c0.8-0.3,1.7-0.5,2.6-0.7C531.2,489.5,532.1,489.8,533,490.4z"/>
		</g>
		<g>
			<path d="M583.4,503.6c-0.8-0.9-1.7-1.6-2.6-2c-0.2-0.1-0.5-0.1-0.7-0.2c-0.1,0-0.2,0-0.3,0l-0.3,0c-0.2-0.1-0.4,0-0.6,0
				c-0.2,0.1-0.5,0.1-0.7,0.2c-1,0.3-2,0.8-3,1.2c-1,0.5-2,1-3,1.6l0.1,0c-1.7,1.2-3.3,2.3-5,3.4c-0.9,0.6-1.7,1.1-2.7,1.6
				c-0.3,0.1-0.5,0.2-0.8,0.4c-0.3,0.1-0.5,0.2-0.8,0.3l-1.4,0.5c-1.9,0.6-3.9,1.2-5.9,1.7c-0.2,0.1-0.5,0.1-0.7,0.2
				c-0.2,0.1-0.5,0.1-0.8,0.1c-0.5,0-1,0-1.6,0c-1,0-2.1,0-3.1-0.3c1-0.2,1.9-0.6,2.9-1c0.5-0.2,0.9-0.4,1.4-0.6
				c0.2-0.1,0.5-0.2,0.7-0.2c0.2,0,0.5-0.1,0.7-0.2c1.9-0.5,3.8-1.1,5.8-1.7c0.9-0.3,2-0.6,2.7-0.9c0.8-0.4,1.7-1,2.5-1.5
				c1.7-1.1,3.3-2.2,5-3.4l0,0l0,0c1-0.6,2.1-1.2,3.1-1.7c1.1-0.5,2.2-1,3.3-1.4c0.3-0.1,0.6-0.2,0.9-0.2c0.3-0.1,0.7-0.1,1.1-0.1
				c0.4,0,0.8,0.1,1.1,0.3c0.3,0.2,0.6,0.4,0.9,0.6C582.6,501.3,583.1,502.5,583.4,503.6z"/>
		</g>
		<g>
			<path d="M591.1,486c-0.5-0.7-1.1-1.4-1.8-1.8c-0.3-0.2-0.6-0.3-1-0.2c-0.3,0-0.7,0.1-1,0.2c-0.7,0.1-1.5,0.3-2.2,0.6
				c-0.8,0.3-1.5,0.7-2.3,1.1c-0.7,0.4-1.4,0.8-2,1.3c-0.3,0.3-0.5,0.5-0.8,0.8l-0.8,1c-1.1,1.4-2.2,2.8-3.4,4.1
				c-0.6,0.7-1.3,1.3-2.1,1.9c-0.4,0.3-0.8,0.6-1.3,0.8c-0.4,0.2-0.7,0.3-1.1,0.5l-4.6,2.5c-1.6,0.8-3.2,1.6-4.9,2.2
				c-0.5,0.1-0.9,0.2-1.4,0.2c-0.5,0-0.9,0.1-1.3,0.1c-0.9,0-1.8,0.1-2.7,0.1c0.8-0.4,1.6-0.8,2.4-1.1l1.2-0.5
				c0.4-0.2,0.7-0.4,1.1-0.6c1.6-0.6,3.1-1.3,4.6-2.1l4.6-2.5c0.4-0.2,0.8-0.4,1.2-0.6c0.3-0.1,0.6-0.3,0.9-0.6
				c0.6-0.5,1.2-1,1.8-1.6c1.2-1.2,2.2-2.6,3.3-4l0.8-1c0.3-0.4,0.7-0.8,1.1-1.1c0.8-0.6,1.5-1.1,2.3-1.5c0.8-0.4,1.6-0.8,2.4-1.2
				c0.9-0.4,1.8-0.7,2.8-0.8c0.5,0,1,0.1,1.6,0.3c0.5,0.2,1,0.5,1.3,0.9C590.7,484.2,591,485.1,591.1,486z"/>
		</g>
	</g>
	<g>
		<g>
			<g>
				<path class="st1" d="M130.4,457.5c0,0-40.5,24.5-46.2,30.1c-4.2-18.9-16.6-28.4-16.6-28.4s-6.4-7.8-18.4-10.1s-3.9,7.8-3.9,7.8
					s20.2,3.1,9.4,18.4c-10.8,15.3-18.1-3.9-18.1-3.9s-0.4-6.2,4.4-12.9s-3.3-7.5-3.3-7.5s-9.1-0.9-13.1,18.1
					c-1,12.6-1.4,13.2-1.4,13.2s-1.6-0.6-3.1-3.5c-0.2-0.4-0.4-0.8-0.6-1.3c-0.6-1.5-1.1-3.5-1.4-6c-1.1-9.3-8.7-5-8.7-5
					s-4.9,7.7,0,19.5C7.3,488,6.9,492,6.9,492s1.2,8.3,8.9,13.2c-1.6,6-0.8,8.1-0.8,8.1s5.1,9.8,32.3,14.6
					c28.6,0.9,37.4-4.4,37.4-4.4l67.4-17.7c0,0,23.6-9.9,28.2-14.5c4.6-4.7,8.6-13.5,8.6-13.5l13.8-34.5l-45.2-19l-7.4,2.3
					c0,0,3.6,4.5,0.7,13.4c-3,8.9-7.3,11.5-7.3,11.5L130.4,457.5z"/>
			</g>
			<g>
				<path class="st4" d="M157.8,456.4c0,0,7.8-2,11.4,1.7"/>
				<path d="M157.8,456.4c0.4-0.5,0.8-0.9,1.3-1.3c0.5-0.1,1-0.1,1.6-0.2c1-0.1,2.1-0.1,3.2,0c1.1,0.1,2.1,0.3,3.2,0.7
					c0.5,0.2,1,0.4,1.5,0.8c0.3,0.5,0.6,1.2,0.6,1.8c-0.7-0.1-1.2-0.1-1.7-0.1c-0.3-0.2-0.8-0.4-1.2-0.6c-0.8-0.3-1.7-0.5-2.7-0.5
					c-0.9-0.1-1.9-0.1-2.8,0c-0.5,0-0.9,0.1-1.4,0.2C158.9,456.9,158.4,456.7,157.8,456.4z"/>
			</g>
		</g>
		<g>
			<path class="st5" d="M37.6,490.7c0,0-5.5-0.3-9.2-3.2s-6.7-6.3-6.7-6.3l-1.5-2.3"/>
			<path d="M37.6,490.7c-0.8,0.5-1.7,0.8-2.6,1c-0.5,0.2-0.9-0.1-1.3-0.1c-0.4-0.1-0.8-0.2-1.2-0.3c-1.6-0.5-3.2-1.2-4.7-2.3
				c-1.4-1-2.5-2.1-3.7-3.2c-1.2-1.1-2.3-2.2-3.4-3.5l-0.1-0.1l0,0c-0.1-0.5-0.1-1-0.2-1.5c-0.1-0.5-0.1-1-0.1-1.6
				c0.5,0.2,1,0.4,1.4,0.7c0.5,0.2,0.9,0.5,1.3,0.7l-0.1-0.2c1,1.1,2.1,2.2,3.3,3.3c1.1,1,2.3,2.1,3.5,3c1.1,0.8,2.4,1.4,3.8,1.9
				c0.4,0.1,0.7,0.2,1.1,0.3c0.3,0.1,0.8,0,1.1,0.4L37.6,490.7z"/>
		</g>
		<g>
			<path class="st5" d="M65.9,493.1c0,0,12.8,0.6,14.9,10.9"/>
			<path d="M65.9,493.1c0.9-0.6,1.8-0.9,2.7-1.1c0.9,0.2,1.7,0.4,2.6,0.7c1.7,0.5,3.3,1.3,4.9,2.2c1.5,1,2.9,2.3,4,3.8l0.8,1.2
				c0.2,0.4,0.4,0.8,0.6,1.3c0,0.3,0,0.5,0,0.8c0,0.3-0.1,0.5-0.2,0.8c-0.1,0.5-0.3,1-0.4,1.4c-0.4-0.3-0.8-0.7-1.1-1
				c-0.2-0.1-0.3-0.3-0.5-0.4c-0.2-0.1-0.4-0.3-0.5-0.4c-0.2-0.3-0.3-0.7-0.4-1l-0.6-0.9c-0.8-1.2-1.9-2.2-3.2-3
				c-1.3-0.8-2.7-1.4-4.1-1.9c-0.7-0.2-1.5-0.4-2.2-0.6L65.9,493.1z"/>
		</g>
		<g>
			<path d="M15.5,506.4c0.3-1.2,0.8-2.3,1.8-3.3c0.3-0.2,0.5-0.5,0.9-0.6c0.3-0.2,0.7-0.3,1.1-0.3c0.4,0,0.8,0,1.1,0.1
				c0.3,0.1,0.6,0.1,0.9,0.2c1.2,0.4,2.3,0.8,3.3,1.4c1.1,0.5,2.1,1.1,3.1,1.7l0,0l0,0c1.6,1.2,3.3,2.3,5,3.4
				c0.8,0.5,1.7,1.1,2.5,1.5c0.7,0.4,1.8,0.6,2.7,0.9c1.9,0.6,3.8,1.2,5.8,1.7c0.2,0.1,0.5,0.1,0.7,0.2c0.2,0,0.5,0.1,0.7,0.2
				c0.5,0.2,0.9,0.4,1.4,0.6c0.9,0.4,1.9,0.8,2.9,1c-1,0.3-2.1,0.3-3.1,0.3c-0.5,0-1,0-1.6,0c-0.3,0-0.5,0-0.8-0.1
				c-0.2-0.1-0.5-0.1-0.7-0.2c-2-0.5-3.9-1.1-5.9-1.7l-1.4-0.5c-0.3-0.1-0.4-0.1-0.8-0.3c-0.3-0.1-0.5-0.2-0.8-0.4
				c-1-0.5-1.8-1-2.7-1.6c-1.7-1.1-3.4-2.3-5-3.4l0.1,0c-0.9-0.6-2-1.1-3-1.6c-1-0.5-2-0.9-3-1.2c-0.3-0.1-0.5-0.1-0.7-0.2
				c-0.2,0-0.4-0.1-0.6,0l-0.3,0c-0.1,0-0.2,0-0.3,0c-0.2,0-0.4,0.1-0.7,0.2C17.2,504.7,16.3,505.5,15.5,506.4z"/>
		</g>
		<g>
			<path d="M7.8,488.7c0.1-0.9,0.4-1.8,1-2.6c0.3-0.4,0.8-0.8,1.3-0.9c0.5-0.2,1.1-0.3,1.6-0.3c1,0.1,1.9,0.4,2.8,0.8
				c0.8,0.3,1.6,0.7,2.4,1.2c0.8,0.4,1.6,0.9,2.3,1.5c0.4,0.3,0.8,0.7,1.1,1.1l0.8,1c1.1,1.4,2.1,2.7,3.3,4c0.6,0.6,1.2,1.2,1.8,1.6
				c0.3,0.2,0.6,0.4,0.9,0.6c0.4,0.2,0.8,0.4,1.2,0.6l4.6,2.5c1.5,0.8,3.1,1.6,4.6,2.1c0.4,0.2,0.7,0.4,1.1,0.6l1.2,0.5
				c0.8,0.4,1.6,0.7,2.4,1.1c-0.9,0-1.8,0-2.7-0.1c-0.4,0-0.9,0-1.3-0.1c-0.5,0-0.9-0.1-1.4-0.2c-1.7-0.6-3.3-1.4-4.9-2.2l-4.6-2.5
				c-0.4-0.2-0.7-0.4-1.1-0.5c-0.5-0.2-0.9-0.5-1.3-0.8c-0.8-0.6-1.4-1.2-2.1-1.9c-1.2-1.3-2.3-2.7-3.4-4.1l-0.8-1
				c-0.3-0.3-0.5-0.5-0.8-0.8c-0.6-0.5-1.3-0.9-2-1.3c-0.7-0.4-1.5-0.8-2.3-1.1c-0.7-0.3-1.5-0.5-2.2-0.6c-0.4-0.1-0.7-0.2-1-0.2
				c-0.3,0-0.6,0.1-1,0.2C8.9,487.3,8.3,487.9,7.8,488.7z"/>
		</g>
	</g>
	<g>
		<path class="st6" d="M340.8,295.8c1,1,3.1,4.1,33.7,9.2c30.6,5.1,43.9,29.6,43.9,29.6s8.2,14.3,17.3,49s13.3,37.7,13.3,37.7
			s7.1,8.2,0,13.3s-21.4,14.3-47.9,15.3c-2-1-5.1,31.6-2,39.8c3.1,8.2,7.1,9.2,9.2,15.3c2,6.1,0,10.2,0,10.2s-5.1-1-9.2,4.1
			c-4.1,5.1-13.3,19.4-32.6,32.6s-43.9,18.4-63.2,19.4s-39.8,0-59.2-11.2c-19.4-11.2-36.7-29.6-36.7-29.6s-5.1-6.1-21.4-7.1
			c0-9.2,5.1-16.3,5.1-16.3l11.2-9.2c0,0,2-4.1,1-13.3c1-8.2,2-12.2,2-15.3c0-3.1-1-21.4-1-21.4s-23.5-1-49-10.2
			c-18.4-4.1-10.2-15.3-10.2-15.3s17.3-55.1,26.5-72.4c9.2-17.3,29.6-32.6,29.6-32.6s14.3-6.1,39.8-11.2s25.5-5.1,25.5-5.1
			s1,23.5,18.4,30.6c17.3,7.1,28.6,3.1,28.6,3.1s17.3-6.1,24.5-20.4C340.8,300.9,339.7,294.8,340.8,295.8z"/>
		<g>
			<path d="M201.2,361.1c-0.5,10-0.6,20.1-0.1,30.1c0.2,2.5,0.4,5,0.7,7.5c0.3,2.5,0.7,5,1,7.5l1,7.5l0.4,3.8
				c0.1,1.3,0.3,2.5,0.3,3.9l0-0.1l0.6,6.6c0.2,2.2,0.3,4.4,0.4,6.6c0.2,4.4,0.4,8.9,0.5,13.3l0,0.1l0,0l-0.3,2.8
				c-0.1,0.9-0.2,1.9-0.3,2.8c-0.2,1.9-0.4,3.8-0.7,5.6l-0.3,0c-0.1-1.9-0.2-3.8-0.3-5.7c0-0.9-0.1-1.9-0.1-2.8l-0.1-2.8l0,0.1
				c-0.6-4.4-1.1-8.8-1.5-13.2c-0.2-2.2-0.4-4.4-0.6-6.6l-0.4-6.6l0-0.1l0,0c0-2.3-0.2-4.9-0.4-7.4c-0.2-2.5-0.4-5-0.7-7.5
				c-0.2-2.5-0.5-5-0.7-7.5c-0.2-2.5-0.3-5.1-0.4-7.6c-0.1-5.1,0-10.1,0.3-15.1c0.3-5,0.6-10.1,1.2-15.1L201.2,361.1z"/>
		</g>
		<g>
			<path d="M400.1,346.8c0.9,8.7,1.4,17.5,1.9,26.2c0.5,8.8,0.6,17.5,0.7,26.3c0,8.8-0.3,17.6-0.6,26.3c-0.2,4.4-0.3,8.7-0.5,13.1
				l-0.3,6.5c0,1.1-0.1,2.2-0.1,3.2c0,0.5,0,1.1,0,1.6c0,0.3,0,0.5,0,0.8c0,0.1,0,0.2,0,0.3l0,0.1c0,0,0,0,0-0.1l0,0
				c0,0,0.1,0.1-0.1-0.2c-0.1-0.2-0.4-0.4-0.6-0.5c-0.2-0.1-0.9-0.1-1.2,0.2c-0.3,0.3-0.3,0.3-0.4,0.5l2.6,0.6
				c-0.1,1.2-0.3,2.2-0.4,3.2c-0.2,1-0.4,2.1-0.6,3.1l-1.3,6c-0.8,4-1.3,8.1-1.2,12.2l-0.3,0c-0.4-2.1-0.5-4.1-0.6-6.2
				c0-2.1,0.1-4.2,0.3-6.3c0.2-2.1,0.6-4.1,0.8-6.1c0.1-1,0.3-2,0.4-3c0.1-1,0.2-2.1,0.2-2.9l2.6,0.6c-0.1,0.2-0.1,0.2-0.4,0.5
				c-0.3,0.3-1,0.3-1.3,0.2c-0.2-0.1-0.5-0.3-0.7-0.6c-0.2-0.3-0.1-0.2-0.2-0.3l0-0.1c0-0.1,0-0.2-0.1-0.2l0-0.1
				c0-0.2-0.1-0.4-0.1-0.5c0-0.3-0.1-0.6-0.1-0.9c0-0.6,0-1.1-0.1-1.7c0-1.1,0-2.2,0-3.3c0-2.2,0.1-4.4,0.1-6.6
				c0.1-2.2,0.2-4.4,0.3-6.6c0.1-2.2,0.3-4.4,0.4-6.6c0.3-4.4,0.6-8.7,0.9-13.1c0.2-4.4,0.4-8.7,0.5-13.1c0.3-8.7,0.2-17.5,0.1-26.2
				c-0.1-8.7-0.4-17.5-0.9-26.2L400.1,346.8z"/>
		</g>
		<g>
			<path d="M235.7,529.4c0.8,0.7,1.7,1.3,2.6,1.8l1.3,0.8l1.4,0.8c0.9,0.5,1.8,1,2.8,1.4c0.9,0.4,1.9,0.9,2.8,1.3
				c3.6,2,7.3,3.7,11.2,5c7.8,2.7,16,4.3,24.2,5.1c8.3,0.8,16.6,0.7,24.8-0.2c4.1-0.5,8.2-1.1,12.3-2c4.2-0.4,8.3-1.1,12.4-1.9
				c-3.7,2-7.8,3.5-11.8,4.9c-4.2,0.9-8.4,1.5-12.6,2c-8.4,0.9-17,1-25.5,0.2c-8.5-0.8-16.9-2.5-24.9-5.3c-4-1.4-8-3.2-11.7-5.2
				c-1.8-1.2-3.5-2.6-5.1-4C238.4,532.7,236.9,531.2,235.7,529.4z"/>
		</g>
		<g>
			<path d="M286.7,535.5c3.1-0.1,6.2-0.3,9.3-0.6c3,0.2,6.1,0.2,9.1,0c6-0.3,12-1.4,17.6-3.5c2.7-1.1,5.5-2.4,8.2-3.8
				c2.7-1.4,5.4-2.9,8-4.4c2.6-1.6,5.2-3.2,7.8-4.9c2.8-1.3,5.5-2.7,8.3-4.2c-2,2.4-4.3,4.5-6.7,6.7c-2.6,1.7-5.2,3.4-7.9,5
				c-2.7,1.6-5.4,3.1-8.2,4.5c-2.8,1.4-5.6,2.8-8.5,4c-6,2.2-12.3,3.3-18.5,3.7c-3.1,0.2-6.3,0.2-9.4,0.1
				C292.7,537.4,289.6,536.6,286.7,535.5z"/>
		</g>
		<g>
			<path d="M291.8,441.7c0.3-0.9,0.7-1.6,1.1-2.4c0.6-0.5,1.2-1.1,1.8-1.7l3.6-3.3l3.6-3.3l1.8-1.7c0.8-0.3,1.6-0.7,2.5-0.9
				c-0.3,0.8-0.7,1.6-1.1,2.4l-1.8,1.7l-3.6,3.3l-3.6,3.3c-0.6,0.6-1.2,1.1-1.8,1.7C293.5,441.1,292.7,441.4,291.8,441.7z"/>
		</g>
		<g>
			<path d="M305.1,437.6c0.2-0.6,0.4-1.1,0.6-1.6c0.4-0.2,0.8-0.5,1.2-0.8l2.3-1.5l2.3-1.5l1.1-0.8c0.6,0,1.1,0,1.7,0.1
				c-0.2,0.6-0.4,1.1-0.6,1.6l-1.1,0.8l-2.3,1.5l-2.3,1.5c-0.4,0.3-0.8,0.5-1.1,0.8C306.2,437.7,305.7,437.7,305.1,437.6z"/>
		</g>
		<g>
			<path d="M259.2,312.2c0.6,2.6,1.6,5.1,2.8,7.5c1.2,2.4,2.6,4.7,4.2,6.8c1.6,2.1,3.3,4.1,5.3,5.9c0.5,0.4,1,0.9,1.5,1.3l1.5,1.3
				c1,0.9,2.1,1.6,3.2,2.3c4.4,3,9.1,5.4,14.1,7c2.5,0.8,5,1.4,7.6,1.8c1.3,0.2,2.6,0.3,3.9,0.4c1.3,0.1,2.6,0,3.7-0.1l0.1,0l0.1,0
				c1.2,0,2.6-0.2,3.8-0.4c1.3-0.2,2.6-0.5,3.9-0.9c2.6-0.7,5.1-1.7,7.5-2.8c4.9-2.2,9.4-5.2,13.6-8.6c1-0.9,2-1.8,2.9-2.7
				c0.9-1,1.8-1.9,2.6-3c1.7-2.1,3-4.4,4.1-6.9c1.1-2.5,1.8-5.1,2.2-7.8c0.4-2.7,0.5-5.5,0.1-8.2c0.7,2.7,0.9,5.5,0.7,8.3
				c-0.2,2.8-0.7,5.6-1.7,8.2c-1.9,5.3-5.3,10.1-9.5,13.9c-4.1,3.8-8.9,6.9-13.9,9.4c-2.6,1.2-5.2,2.2-7.9,3c-1.4,0.4-2.8,0.7-4.2,1
				c-1.4,0.2-2.8,0.5-4.4,0.5l0.2,0c-1.6,0.2-2.9,0.2-4.3,0.1c-1.4-0.1-2.8-0.2-4.2-0.4c-2.8-0.4-5.5-1.1-8.1-2
				c-5.2-1.9-10.1-4.5-14.5-7.8c-4.4-3.3-8.3-7.3-11.3-11.9c-1.5-2.3-2.7-4.7-3.7-7.3C260.2,317.5,259.5,314.8,259.2,312.2z"/>
		</g>
	</g>
	<g>
		<g>
			<path class="st7" d="M378,225.8c0,0,0.3,14.1-6.9,22.5c-7.1,8.4-13.7,11.6-13.7,11.6l3.1-39.7l4.9,2.8c0,0,5.5-5.6,8.5-3.5
				C376.8,221.5,378,225.8,378,225.8z"/>
			<path class="st7" d="M242.7,217.9c0,0-3.6-3.4-6.9-2.2c-3.2,1.2-5.2,6-3.9,12.6c1.2,6.6,4.4,16.7,8.4,19.7s10.4,4.8,10.4,4.8
				l1.3-14.8L242.7,217.9z"/>
			<polygon class="st7" points="341.7,288.8 326.5,280.7 308.1,276.7 282.2,279.5 260.4,285.3 247.1,259.9 244.6,252.4 244.6,248.5 
				242.1,215.7 243.6,182.7 255.3,158.5 262.5,148 278.1,134.9 290,131.7 354.7,153.4 371.5,181.3 369,218.9 368.1,229.5 
				361.1,264.1 352.1,286.3 			"/>
			<path class="st8" d="M243.8,238.5c0,0-5.5-28.7-7.8-48.7s0.8-28.5,0.8-28.5s-0.2,5.7,5.5,8.7c1.3-15,6.5-28.3,6.5-28.3
				s9-14,14.7-16.7c-0.4,8,2.6,10.1,2.6,10.1l2.8,1.4c0,0-0.9-14.7,2.1-21.6c3-6.9,13-15.8,16.5-16.4c3.5-0.6-0.2,6.2,1.4,7.4
				c1.6,1.2,4.3-3.6,4.3-3.6s4.5-8.5,4.5-11.9c0-3.4-0.1-8.3-0.1-8.3s8.1,3.9,12.2,9.4c4.1,5.6,5.4,10,5.8,11.6
				c0.4,1.6,2.1-4.7,1.9-5.7c-0.2-1,6.4,5.3,7.5,8.6s2.7,9.4,2.7,9.4s2.5-4.4,4-6.3c1.5-1.9,4.5-3.8,4.5-3.8l-0.2,8.4
				c0,0,7.8,10.6,12.3,14.3c4.4,3.7,8.8,13.7,8.8,13.7s2.2,2.8,3.1,0.9c0.9-1.9,0.2-8.5,0.2-8.5s4.2,0.4,8.4,7.2
				c4.3,6.8,6.2,11.8,6.2,11.8s0.9,0.8-0.3,11.8c-1.2,10.9,1,8.5,1,8.5s1.9-0.2,2.8-2.7c0.9-2.5-2.5,10.6-1.8,15.4
				s-0.9,14.3-0.9,14.3s-2.3-2.3-2.1,0.2s-0.4,9.5-0.4,9.5s-1.6-3.2-1.7-1.1c-0.1,2-0.6,11.4-0.6,11.4l-6.2,19.2l2.6-17.5
				c0,0-0.2-20.8-1.4-25.9c-1.2-5.1-0.6-10.9-0.6-10.9s-2-0.5-1.7-2s0.4-5.8-0.9-5.5c-1.3,0.3-1.5-4-1.2-4.3s-1-2.3-3.4-3.8
				s-2.1-4.1-5.4-4c-3.3,0.1-5.2,0-6.4-0.7c-1.2-0.7,3.5-2.2,3.8-4.4c0.3-2.1-1.4-3.6-4.2,0.2c-2.8,3.8-2.5,3.6-8.1,4.8
				c-5.6,1.2-25.6,5.1-34.6,3.9c-9.1-1.1-11.3-1.7-13.3-4c-2.1-2.3-4.8-8.6-5.2-16.5s-1.6-11.4-1.6-11.4s-4,10.9-2.1,17.9
				c1.9,7,2.3,8.3,3.4,10c1.1,1.7-9.2-1.1-9.2-1.1s-6.1-9.1-6.4-11.9c-0.3-2.9-2.1,2.6-1.6,4.9c0.5,2.4,0.9,3.4,1.9,5.2
				c1,1.8-0.1,2.1-0.1,2.1s-6.4-0.5-8.9,2.4c-2.5,2.9-5.5,6.7-6.4,8.3s-5.3,10.6-5.3,10.6s-3.1,7.9-2.9,11.4
				c0.2,3.5-0.8,17.5-0.8,17.5s-0.2,13,0.1,15.5S243.8,238.5,243.8,238.5z"/>
			<path class="st8" d="M243.8,236.6c0,0,0.1,37.6,3.9,48.4s24.7,35.9,24.7,35.9s8.7,12.1,20.8,13.4c12.1,1.3,22.4-0.6,22.4-0.6
				s4.8-0.1,17.7-13.1c13-12.9,21.6-25.5,21.6-25.5s6.2-7.7,7.6-20.5c1.4-12.8,2.4-35,2.4-35s0.2,15.5-7.9,25.4
				c-8.1,9.9-16.9,16.2-16.9,16.2s-3.8,2.5-7.3-1.9s-5.9-5.9-13-6.7c-7.1-0.8-13.6,0-13.6,0s-2.8-0.4-11.7-1.5s-15.2,1.9-15.2,1.9
				s-4.2,2.2-6.6,5.8c-2.4,3.7-7.3-1.8-7.3-1.8s-8.3-4-13.8-15.2c-5.5-11.2-5.6-8.7-6.1-13.5C245.1,243.6,243.8,236.6,243.8,236.6z"
				/>
			<g>
				<path d="M252.7,208.2c0.2-1,0.6-1.9,1.2-2.8c0.5-0.9,1.2-1.7,2-2.4c1.9-0.8,3.9-1.2,5.9-1.2c0.5,0,1,0,1.5,0.1l0.7,0.1l0.6,0.1
					l2.5,0.3c1.7,0.2,3.4,0.4,5.2,0.7c3.5,0.5,7,1.3,10.4,2.5c1.7,0.6,3.4,1.3,5,2.2c1.3,1.5,2.4,3.1,3.1,4.9
					c-2-0.2-3.7-0.5-5.5-0.5c-1.4-0.8-2.9-1.4-4.3-1.9c-3-1.1-6.2-1.8-9.4-2.3c-1.6-0.2-3.3-0.5-5-0.6l-2.6-0.3l-0.6-0.1l-0.5,0
					c-0.4,0-0.7,0-1.1,0c-1.4,0-2.8,0.2-4,0.8C256.4,207.5,254.6,207.6,252.7,208.2z"/>
			</g>
			<g>
				<path d="M319.8,214.5c-0.1-1.1,0.2-2.3,0.7-3.3c0.5-1.1,1.1-2.1,1.9-2.9c1.9-1,3.9-1.7,5.9-2.1l1.5-0.3l1.3-0.3l2.7-0.5
					c1.8-0.3,3.6-0.7,5.5-0.9c1.9-0.3,3.8-0.5,5.9-0.5c0.5,0,1,0,1.5,0l0.8,0.1c0.3,0,0.6,0.1,0.9,0.1c1.1,0.2,2.1,0.4,3.1,0.7
					c1.9,0.6,3.7,1.2,5.4,1.9c1.4,1.5,2.8,3.1,3.9,4.9c-2.2,0.3-4.2,0.5-6.1,0.6c-1.6-0.7-3.3-1.3-4.9-1.7c-1.7-0.5-2.8-0.7-4.5-0.7
					c-1.6,0-3.3,0.2-5,0.4c-1.7,0.2-3.5,0.6-5.3,0.9l-2.7,0.5l-1.3,0.3l-1.2,0.3c-1.6,0.4-3.1,0.9-4.4,1.6
					C323.6,213.6,321.7,213.6,319.8,214.5z"/>
			</g>
			<path class="st9" d="M262.2,222.5c0,0,3.4-6.1,12.8-5.9s12.5,6.6,12.5,6.6"/>
			<path class="st9" d="M324.3,224.3c0,0,2.7-7.4,14.3-5.8c11.5,1.6,10.9,6.5,10.9,6.5"/>
			<path class="st8" d="M274.5,222.2c0,0-2.2,0.2-3.8-0.8c-1.6-1-1.2,4.1,3,5.3s6.4-2,6.4-2s2.8-3.1,0.5-5.8s-5.3-2-5.2-1.9
				C275.6,217.1,277.8,220.4,274.5,222.2z"/>
			<path class="st8" d="M332.6,218.4c-0.3,0-1.1,2.6-0.9,5c0.2,2.4,2.6,4.4,2.6,4.4s1.5,1.6,4.8,0.1c3.3-1.4,2.6-3.2,2.6-3.2
				s-4.4,1.1-5-0.1c-0.6-1.3-1.9-2.5-1-4.8C336.6,217.6,332.6,218.4,332.6,218.4z"/>
			<g>
				<path d="M296.2,266.8c1.5,0.3,2.8,0.7,4.1,1.1c1.3,0.4,2.5,0.7,3.5,0.6c1.3,0,2.6-0.1,4-0.1c1.4-0.1,2.8-0.1,4.3,0
					c-1.1,1-2.4,1.8-3.8,2.3c-1.4,0.5-2.9,0.8-4.4,0.8c-1.8,0-3.3-0.7-4.6-1.5C298.1,269.1,297,268.1,296.2,266.8z"/>
			</g>
			<path class="st7" d="M303.9,280.2c0,0,13,1.7,18.4,5.1c7.5,6.3,2,7.5,2,7.5s-1.4,0.8-4.6,0.7c-3.1-0.1-12.8-0.8-15.6-1
				c-2.8-0.2-11.7,0-14.4,0.1s-5.4-0.4-5.7-2.8c-0.3-2.4-1.2-3.4,2.7-5.8c3.9-2.4,7.3-3.3,10.9-3.8
				C301.1,279.7,303.9,280.2,303.9,280.2z"/>
		</g>
	</g>
	<g>
		<path class="st1" d="M304.5,673.7l7.1,8.2c0,0,2,4.1,19.4,6.1c17.3,2,34.7,12.2,34.7,12.2s6.1,3.1,17.3,1c11.2-2,17.3,1,17.3,1
			s6.1-3.1,4.1-6.1c1-1,5.1-2,5.1-2s4.1-5.1,2-8.2c2-5.1,6.1-5.1,1-12.2c8.2-6.1,3.1-12.2,3.1-12.2l4.1-8.2c0,0,0-8.2-10.2-8.2
			s-10.9-1-18.7-3.1c-7.8-2-28.2-2-35.4-3.1c-7.1-1-4.1-5.1-27.5-8.2C304.5,627.8,304.5,673.7,304.5,673.7z"/>
		<g>
			<path d="M419.9,653.4c-0.5,1.8-1.3,3.5-2.3,5.2c-0.5,0.8-1.2,1.6-1.9,2.2c-0.4,0.3-0.8,0.6-1.3,0.8c-0.5,0.2-1,0.3-1.5,0.5
				c-1.9,0.4-3.8,0.6-5.7,0.4c-1.9-0.2-3.7-0.5-5.5-1.3l0-0.2c1.9-0.4,3.7-0.4,5.6-0.5c1.8-0.1,3.6,0.2,5.4,0l0.6-0.1
				c0.2,0,0.4-0.1,0.6-0.1c0.4-0.1,0.7-0.3,1.1-0.5c0.7-0.5,1.3-1.1,1.9-1.8c1.2-1.4,2.1-3,2.9-4.7L419.9,653.4z"/>
		</g>
		<g>
			<path d="M417.2,669.5c-0.2,0.8-0.6,1.4-1.1,2c-0.5,0.6-1,1.1-1.6,1.6c-0.6,0.5-1.2,0.9-1.9,1.3c-0.7,0.4-1.5,0.7-2.3,0.8
				c-1.6,0.3-3.2,0.3-4.7-0.1c-1.5-0.5-2.9-1.2-4-2.3l0.1-0.2c1.6,0.1,3,0.3,4.4,0.5c1.4,0.1,2.7,0.6,4.1,0.5
				c0.7-0.1,1.3-0.1,1.9-0.4c0.6-0.2,1.3-0.6,1.9-1c1.2-0.7,2.5-1.6,3.1-2.8L417.2,669.5z"/>
		</g>
		<g>
			<path d="M414.5,679.1c0.1,1.7-0.2,3.4-0.9,5c-0.4,0.8-0.9,1.6-1.6,2.2c-0.7,0.6-1.6,1-2.5,1.3c-1.7,0.4-3.5,0.6-5.2,0.2
				c-1.7-0.3-3.4-1-4.8-2l0.1-0.2c1.7,0,3.3,0.2,4.9,0.2c1.6,0.1,3.1,0.3,4.7,0.2c0.7-0.1,1.4-0.3,2-0.7c0.6-0.4,1.1-1,1.5-1.6
				c0.8-1.3,1.3-2.9,1.5-4.6L414.5,679.1z"/>
		</g>
		<g>
			<path d="M409.7,694.2c-1.1,0.8-2.2,1.5-3.4,2.1c-0.3,0.1-0.6,0.3-1,0.4c-0.3,0.1-0.8,0.2-1.1,0.2c-0.7,0.1-1.3,0.1-2,0.1
				c-1.3,0-2.7,0.1-4.1-0.3c-1.3-0.4-2.7-1.1-3.4-2.4l0.1-0.2c0.7,0.2,1.3,0.3,1.9,0.4c0.6,0.1,1.2,0.2,1.8,0.2
				c1.2,0.1,2.4,0.5,3.7,0.7c0.6,0.1,1.3,0.1,1.9,0.2c0.4,0,0.6,0,0.9,0c0.3,0,0.6-0.1,0.9-0.2c1.2-0.3,2.4-0.8,3.6-1.3L409.7,694.2
				z"/>
		</g>
	</g>
</g>
</svg>
