<svg xmlns="http://www.w3.org/2000/svg" viewBox="0 0 534.52 565.84"><defs><style>.cls-1,.cls-4,.cls-7{fill:#ffdfd4;}.cls-1,.cls-2,.cls-3,.cls-6,.cls-7,.cls-8,.cls-9{stroke:#000;stroke-miterlimit:10;}.cls-1,.cls-2,.cls-3,.cls-6{stroke-width:3px;}.cls-2{fill:#64a6d8;}.cls-3,.cls-9{fill:none;}.cls-5{fill:#dbaf63;}.cls-6{fill:#39b54a;}.cls-9{stroke-width:2px;}</style></defs><title>men</title><g id="Шар_2" data-name="Шар 2"><g id="Шар_1-2" data-name="Шар 1"><path class="cls-1" d="M145,507.65,129.2,509.5s-4.63,1.85-3.71,5.56,8.34,4.63,8.34,4.63-5.56,4.63-4.63,7.41,2.78,4.63,7.41,4.63c-3.71,1.85-1.85,7.41-1.85,7.41s2.78,3.71,12,1.85c-4.63,1.85-9.27,1.85-7.41,7.41s19.46.93,19.46.93,13,.93,21.31-.93,22.24-6.49,22.24-6.49,3.71-2.78,13-5.56S225.56,528,225.56,528Z"/><path class="cls-2" d="M365.93,394.15s36.13-5.56,60.22-1.85,37.06,7.41,37.06,7.41,19.46,4.63,18.53,19.46A159.58,159.58,0,0,1,478,445.11s.93,13.9-17.6,25S416,494.21,416,494.21s-13.9,5.56-38.91,10.19c-13.9,2.78-16.68,4.63-20.38,6.49-5.56,0-7.41-5.56-38-3.71-9.27-5.56-25-7.41-25-7.41s1.85,22.24-12,36.13S265.86,547,265.86,547a67.3,67.3,0,0,1-25-5.56c-12-5.56-38.91-15.75-61.15-20.38s-40.77-11.12-50-13a224.07,224.07,0,0,0-23.16-2.78s-25.94-17.6-35.21-26.87-22.24-25-11.12-54.66S125,399.71,125,399.71l37.06.93a34.88,34.88,0,0,1,14.82,1.85c7.41,2.78,29.65,18.53,29.65,18.53l50,17.6L300.14,434l36.13-23.16,18.53-17.6Z"/><path d="M112,416.25a19,19,0,0,1,6.13-.14,53.88,53.88,0,0,1,6,1,95.56,95.56,0,0,1,11.67,3.58c1.92.67,3.79,1.47,5.69,2.22l5.6,2.42q5.55,2.48,11.14,4.87c14.9,6.4,29.91,12.55,45,18.61l11.3,4.51,5.66,2.23c1.94.78,3.73,1.63,5.6,2.44l11.11,5,5.55,2.49L248,468l5.52,2.56c1.8.73,3.71,1.52,5.58,2.24,3.76,1.46,7.55,2.83,11.37,4.08,1.91.61,3.84,1.2,5.77,1.69,1,.27,1.93.47,2.91.71l1.54.38c.51.13,1,.32,1.51.48a18,18,0,0,1,5.57,3.08,11.54,11.54,0,0,1,3.71,5.24v.06c.48,3.42,1,6.84,1.42,10.27l0,.15-.28.05,0-.15c-.8-3.36-1.53-6.74-2.28-10.11v.06a11.05,11.05,0,0,0-3.56-4.33,16.24,16.24,0,0,0-5.18-2.49c-.47-.12-.93-.27-1.41-.36l-1.43-.27c-1-.18-2-.34-3-.56-2-.42-4-.95-6-1.49-3.94-1.1-7.82-2.4-11.66-3.77-1.93-.7-3.8-1.37-5.77-2.17l-5.54-2.5-5.54-2.5-5.52-2.57-11-5.16c-1.83-.84-3.68-1.77-5.49-2.55l-5.61-2.36L202.34,451c-14.94-6.34-29.87-12.73-44.66-19.43q-5.54-2.53-11-5.14l-5.51-2.54c-1.86-.79-3.71-1.62-5.6-2.34a94.85,94.85,0,0,0-11.5-3.83,53.39,53.39,0,0,0-5.94-1.16,18.86,18.86,0,0,0-6,0l-.15,0-.09-.28Z"/><path d="M121.31,411.61a11.3,11.3,0,0,1,4.1-.78,17,17,0,0,1,4.16.41,20.37,20.37,0,0,1,7.42,3.67,36.07,36.07,0,0,1,3.23,2.52,17.33,17.33,0,0,1,1.47,1.53,8.39,8.39,0,0,1,1.13,1.86,5.67,5.67,0,0,0,.89,1.55,9.91,9.91,0,0,0,1.36,1.3c1,.82,2.1,1.55,3.19,2.31l-.14.26a32.93,32.93,0,0,1-3.58-1.81,10.93,10.93,0,0,1-1.7-1.21,7,7,0,0,1-1.35-1.69,6.69,6.69,0,0,0-1.1-1.39A15.73,15.73,0,0,0,139,419a34,34,0,0,0-3.25-2,22.57,22.57,0,0,0-3.46-1.54l-3.52-1.28a62.62,62.62,0,0,0-7.39-2.22Z"/><path d="M249.56,453.1a57.21,57.21,0,0,1-8.83-5.31,99.57,99.57,0,0,1-7.8-6.6l-7.71-6.72c-2.54-2.28-5.1-4.53-7.62-6.84l.19-.23c2.81,1.94,5.58,3.94,8.37,5.9l8.27,6a99.6,99.6,0,0,1,8.18,6.14,57.21,57.21,0,0,1,7.15,7.43Z"/><path d="M301.53,453a70.19,70.19,0,0,1,4.77-7.79c1.71-2.5,3.53-4.91,5.41-7.27s3.85-4.65,5.93-6.86a69.4,69.4,0,0,1,6.59-6.33,69.41,69.41,0,0,1-4.76,7.8c-1.71,2.5-3.53,4.91-5.42,7.27s-3.86,4.65-5.93,6.86A70.19,70.19,0,0,1,301.53,453Z"/><path class="cls-3" d="M277,480.32s-1.85-2.78,12-8.34S315,462.71,315,462.71s13-8.34,18.53-13,38.91-19.46,38.91-19.46,13.9-6.49,17.6-10.19S405.77,409,405.77,409"/><path d="M411.33,416.39a16,16,0,0,0-6.84,1,64.65,64.65,0,0,0-6.36,2.91c-2.12,1-4.25,2-6.47,2.95-1.11.46-2.23.89-3.41,1.25a16,16,0,0,1-3.79.76v-3a13.38,13.38,0,0,0,3.15-.31c1.1-.21,2.21-.51,3.31-.83,2.22-.65,4.42-1.42,6.63-2.21l3.31-1.2a31.64,31.64,0,0,1,3.42-1A16.38,16.38,0,0,1,411.33,416.39Z"/><path class="cls-1" d="M420.82,339.37s36.75,22.3,41.93,27.36c3.82-17.16,15-25.76,15-25.76a30,30,0,0,1,16.75-9.17c11-2.06,3.52,7.09,3.52,7.09s-18.34,2.82-8.53,16.71,16.4-3.55,16.4-3.55a19.79,19.79,0,0,0-4-11.7c-4.35-6.07,3-6.83,3-6.83s8.29-.85,11.94,16.47c.88,11.43,1.23,12,1.23,12s1.47-.53,2.79-3.15c.17-.35.35-.73.51-1.15a22.05,22.05,0,0,0,1.28-5.48c1-8.48,7.92-4.54,7.92-4.54s4.44,7,0,17.7c2,1.65,2.41,5.34,2.41,5.34a18.61,18.61,0,0,1-8.08,12c1.49,5.44.76,7.37.76,7.37s-4.68,8.86-29.37,13.27c-26,.81-33.94-4-33.94-4l-61.26-16.05s-21.41-9-25.57-13.2-7.78-12.24-7.78-12.24l-12.53-31.31,41.07-17.26,6.74,2.1s-3.31,4.07-.61,12.17,6.67,10.49,6.67,10.49Z"/><path class="cls-4" d="M396,338.32s-7.1-1.85-10.35,1.54"/><path d="M396,338.32c-.54.3-1,.51-1.49.73a11.7,11.7,0,0,0-1.28-.17,14.52,14.52,0,0,0-2.55,0,9.13,9.13,0,0,0-2.39.49,5.29,5.29,0,0,0-1,.51,8.82,8.82,0,0,0-1.6,0,4.12,4.12,0,0,1,.53-1.69,7.28,7.28,0,0,1,1.4-.69,11.09,11.09,0,0,1,2.92-.61,16.51,16.51,0,0,1,2.89,0c.48,0,.95.11,1.42.16A6.34,6.34,0,0,1,396,338.32Z"/><path class="cls-5" d="M505.13,369.5s5-.25,8.33-2.92a59.7,59.7,0,0,0,6.1-5.71l1.38-2.05"/><path d="M505.13,369.5l1.88-1.62c.27-.38.63-.24.95-.37s.64-.18,1-.27a11.53,11.53,0,0,0,3.41-1.69c1.05-.8,2.14-1.77,3.16-2.72s2-2,3-3l-.13.17c.42-.21.83-.44,1.27-.64s.89-.4,1.36-.58c0,.5,0,1,0,1.48s-.08.94-.11,1.41v0l-.13.14c-1,1.11-2.06,2.14-3.14,3.15s-2.16,2-3.4,2.93a14.49,14.49,0,0,1-4.3,2.15c-.37.11-.75.23-1.13.32s-.72.34-1.17.11A9,9,0,0,1,505.13,369.5Z"/><path class="cls-5" d="M479.42,371.66s-11.67.58-13.5,9.92"/><path d="M479.42,371.66l-1.94,1.8a13.64,13.64,0,0,0-2,.5,16,16,0,0,0-3.72,1.69,10.53,10.53,0,0,0-2.84,2.68l-.52.81c-.16.28-.25.59-.4.88l-.52.32c-.15.12-.3.26-.47.39l-1.07.85a9.25,9.25,0,0,1-.47-1.32c-.07-.23-.12-.46-.17-.7s0-.46-.07-.71c.16-.4.35-.78.54-1.17l.7-1.09a13.53,13.53,0,0,1,3.67-3.47,19,19,0,0,1,4.45-2c.77-.25,1.55-.43,2.33-.61A8.84,8.84,0,0,1,479.42,371.66Z"/><path d="M525.2,383.71a6.44,6.44,0,0,0-2.41-1.75,2.25,2.25,0,0,0-.6-.12,1.28,1.28,0,0,0-.27,0l-.24,0a1.2,1.2,0,0,0-.51,0c-.22,0-.44.1-.67.17a19.32,19.32,0,0,0-2.76,1.12c-.91.44-1.82.93-2.68,1.44l.06,0c-1.51,1.07-3,2.12-4.58,3.13-.79.5-1.57,1-2.44,1.45a7.2,7.2,0,0,1-.74.33c-.29.12-.45.15-.69.23l-1.32.42c-1.76.55-3.53,1.08-5.32,1.55-.22.06-.45.11-.67.18a1.74,1.74,0,0,1-.69.12c-.47,0-1,0-1.43,0a10,10,0,0,1-2.86-.37,14.3,14.3,0,0,0,2.6-.94c.42-.19.84-.37,1.25-.57a1.73,1.73,0,0,1,.64-.21c.22,0,.44-.11.66-.16,1.75-.46,3.49-1,5.23-1.53a18.22,18.22,0,0,0,2.43-.86c.75-.39,1.52-.87,2.28-1.36,1.52-1,3-2,4.5-3.07l0,0,0,0c.94-.56,1.87-1.06,2.85-1.53a21.21,21.21,0,0,1,3.06-1.23c.27-.08.56-.15.85-.22a5.22,5.22,0,0,1,1.05-.09,1.9,1.9,0,0,1,1,.31,4,4,0,0,1,.8.59A5.73,5.73,0,0,1,525.2,383.71Z"/><path d="M532.21,367.65a4.73,4.73,0,0,0-1.63-1.57,1.62,1.62,0,0,0-.85-.19,3.56,3.56,0,0,0-.91.2,7.06,7.06,0,0,0-2,.54,22.76,22.76,0,0,0-2.07,1,12.23,12.23,0,0,0-1.84,1.19,4.39,4.39,0,0,0-.71.69l-.72.91c-1,1.25-2,2.52-3.1,3.72a14.92,14.92,0,0,1-1.89,1.72,6.78,6.78,0,0,1-1.21.72c-.34.15-.67.31-1,.49l-4.18,2.23a37.62,37.62,0,0,1-4.44,2c-.42.07-.85.13-1.28.16s-.81,0-1.22.06q-1.21,0-2.44,0,1.09-.56,2.19-1.08L504,380c.33-.16.66-.35,1-.55a35.85,35.85,0,0,0,4.19-1.93l4.21-2.24c.36-.18.75-.37,1.13-.54a4.89,4.89,0,0,0,.82-.5,13,13,0,0,0,1.62-1.48c1-1.11,2-2.33,3-3.58l.76-1a6.47,6.47,0,0,1,1-1,14.15,14.15,0,0,1,2.15-1.39c.72-.39,1.49-.75,2.22-1.06a9.6,9.6,0,0,1,2.58-.72,4.76,4.76,0,0,1,1.46.28,2.81,2.81,0,0,1,1.24.89A4.52,4.52,0,0,1,532.21,367.65Z"/><path class="cls-1" d="M113.7,341.85s-36.75,22.3-41.93,27.36c-3.82-17.16-15-25.76-15-25.76A30,30,0,0,0,40,334.27c-11-2.06-3.52,7.09-3.52,7.09s18.34,2.82,8.53,16.71-16.4-3.55-16.4-3.55a19.79,19.79,0,0,1,4-11.7c4.35-6.07-3-6.83-3-6.83s-8.29-.85-11.94,16.47c-.88,11.43-1.23,12-1.23,12s-1.47-.53-2.79-3.15c-.17-.35-.35-.73-.51-1.15a22.05,22.05,0,0,1-1.28-5.48c-1-8.48-7.92-4.54-7.92-4.54s-4.44,7,0,17.7c-2,1.65-2.41,5.34-2.41,5.34a18.61,18.61,0,0,0,8.08,12c-1.49,5.44-.76,7.37-.76,7.37s4.68,8.86,29.37,13.27c26,.81,33.94-4,33.94-4l61.26-16.05s21.41-9,25.57-13.2,7.78-12.24,7.78-12.24L179.29,329l-41.07-17.26-6.74,2.1s3.31,4.07.61,12.17-6.67,10.49-6.67,10.49Z"/><path class="cls-4" d="M138.55,340.8s7.1-1.85,10.35,1.54"/><path d="M138.55,340.8a6.34,6.34,0,0,1,1.18-1.26c.47-.05.94-.13,1.42-.16a16.51,16.51,0,0,1,2.89,0A11.09,11.09,0,0,1,147,340a7.28,7.28,0,0,1,1.4.69,4.12,4.12,0,0,1,.53,1.69,8.82,8.82,0,0,0-1.6,0,5.29,5.29,0,0,0-1-.51,9.13,9.13,0,0,0-2.39-.49,14.52,14.52,0,0,0-2.55,0,11.7,11.7,0,0,0-1.28.17C139.57,341.31,139.08,341.09,138.55,340.8Z"/><path class="cls-5" d="M29.4,372s-5-.25-8.33-2.92a59.7,59.7,0,0,1-6.1-5.71l-1.38-2.05"/><path d="M29.4,372a9,9,0,0,1-2.4,1c-.44.23-.78-.05-1.17-.11s-.75-.21-1.13-.32a14.49,14.49,0,0,1-4.3-2.15c-1.24-1-2.31-1.91-3.4-2.93s-2.11-2-3.14-3.15l-.13-.14v0c0-.47-.09-.93-.11-1.41s0-1,0-1.48c.47.18.93.37,1.36.58s.84.43,1.27.64l-.13-.17c.93,1,1.95,2,3,3s2.11,1.92,3.16,2.72a11.53,11.53,0,0,0,3.41,1.69c.32.09.63.19,1,.27s.68,0,.94.37Z"/><path class="cls-5" d="M55.1,374.14s11.67.58,13.5,9.92"/><path d="M55.1,374.14A8.84,8.84,0,0,1,57.62,373c.78.18,1.57.36,2.33.61a19,19,0,0,1,4.45,2,13.53,13.53,0,0,1,3.67,3.47l.7,1.09c.19.38.38.77.54,1.17,0,.24,0,.47-.07.71s-.1.47-.17.7a9.25,9.25,0,0,1-.47,1.32l-1.07-.85c-.17-.13-.32-.26-.47-.39l-.52-.32c-.15-.28-.24-.6-.4-.88l-.52-.81a10.53,10.53,0,0,0-2.84-2.68,16,16,0,0,0-3.72-1.69,13.63,13.63,0,0,0-2-.5Z"/><path d="M9.33,386.18a5.73,5.73,0,0,1,1.56-3,4,4,0,0,1,.8-.59,1.9,1.9,0,0,1,1-.31,5.22,5.22,0,0,1,1.05.09c.29.06.58.13.85.22a21.2,21.2,0,0,1,3.06,1.23c1,.48,1.9,1,2.85,1.53l0,0,0,0c1.48,1.05,3,2.09,4.5,3.07.76.48,1.53,1,2.28,1.36a18.22,18.22,0,0,0,2.43.86c1.74.55,3.48,1.07,5.23,1.53.22.05.44.12.66.16a1.73,1.73,0,0,1,.64.21c.41.2.83.38,1.25.57a14.3,14.3,0,0,0,2.6.94,10,10,0,0,1-2.86.37c-.48,0-1,0-1.43,0a1.74,1.74,0,0,1-.69-.12c-.22-.07-.45-.12-.67-.18-1.8-.47-3.57-1-5.32-1.55l-1.32-.42c-.24-.08-.4-.12-.69-.23a7.2,7.2,0,0,1-.74-.33c-.88-.46-1.66-1-2.44-1.45-1.56-1-3.07-2.05-4.58-3.13l.06,0c-.86-.51-1.77-1-2.68-1.44A19.34,19.34,0,0,0,14,384.48c-.23-.07-.45-.12-.67-.17a1.2,1.2,0,0,0-.51,0l-.24,0a1.27,1.27,0,0,0-.27,0,2.25,2.25,0,0,0-.6.12A6.44,6.44,0,0,0,9.33,386.18Z"/><path d="M2.31,370.13a4.52,4.52,0,0,1,.91-2.4,2.81,2.81,0,0,1,1.24-.89,4.76,4.76,0,0,1,1.46-.28,9.6,9.6,0,0,1,2.58.72c.73.31,1.5.67,2.22,1.06a14.15,14.15,0,0,1,2.15,1.39,6.47,6.47,0,0,1,1,1l.76,1c1,1.25,1.94,2.47,3,3.58a13,13,0,0,0,1.62,1.48,4.89,4.89,0,0,0,.82.5c.38.17.77.35,1.13.54L25.36,380a35.84,35.84,0,0,0,4.19,1.93c.32.19.65.38,1,.55l1.09.51q1.1.51,2.19,1.08-1.22,0-2.44,0c-.41,0-.8,0-1.22-.06s-.86-.09-1.28-.16a37.61,37.61,0,0,1-4.44-2l-4.18-2.23c-.35-.18-.68-.33-1-.49a6.78,6.78,0,0,1-1.21-.72,14.91,14.91,0,0,1-1.89-1.72c-1.13-1.2-2.13-2.48-3.1-3.72L12.3,372a4.39,4.39,0,0,0-.71-.69,12.23,12.23,0,0,0-1.84-1.19,22.75,22.75,0,0,0-2.07-1,7.06,7.06,0,0,0-2-.54,3.56,3.56,0,0,0-.91-.2,1.62,1.62,0,0,0-.85.19A4.73,4.73,0,0,0,2.31,370.13Z"/><path class="cls-6" d="M304.78,195c.93.93,2.78,3.71,30.57,8.34a58.25,58.25,0,0,1,39.84,26.87s7.41,13,15.75,44.47,12,34.28,12,34.28,6.49,7.41,0,12-19.46,13-43.55,13.9c-1.85-.93-4.63,28.72-1.85,36.13s6.49,8.34,8.34,13.9,0,9.27,0,9.27-4.63-.93-8.34,3.71-12,17.6-29.65,29.65-39.84,16.68-57.44,17.6-36.13,0-53.74-10.19S183.4,408,183.4,408s-4.63-5.56-19.46-6.49a28.18,28.18,0,0,1,4.63-14.82l10.19-8.34s1.85-3.71.93-12c.93-7.41,1.85-11.12,1.85-13.9s-.93-19.46-.93-19.46a168.51,168.51,0,0,1-44.47-9.27c-16.68-3.71-9.27-13.9-9.27-13.9s15.75-50,24.09-65.78,26.87-29.65,26.87-29.65,13-5.56,36.13-10.19l23.16-4.63s.93,21.31,16.68,27.8,25.94,2.78,25.94,2.78,15.75-5.56,22.24-18.53C304.78,199.59,303.85,194,304.78,195Z"/><path d="M178,254.26a254.17,254.17,0,0,0,0,27.34c.15,2.26.33,4.53.61,6.77s.63,4.51.93,6.77l.89,6.82.4,3.43c.12,1.17.25,2.25.31,3.53v-.11l.57,6c.16,2,.29,4,.4,6,.2,4,.37,8,.43,12.08V333l-.26,2.57c-.1.86-.18,1.71-.29,2.57-.23,1.71-.41,3.42-.69,5.13H181c-.15-1.72-.2-3.44-.3-5.17-.05-.86-.06-1.72-.1-2.58l-.07-2.58v.11c-.56-4-1-8-1.42-12-.2-2-.38-4-.52-6l-.36-6v-.11c0-2.11-.17-4.47-.33-6.71s-.37-4.54-.59-6.81-.48-4.52-.66-6.84-.28-4.6-.34-6.9c-.11-4.59,0-9.18.29-13.75s.61-9.13,1.1-13.68Z"/><path d="M358.66,241.27c.79,7.92,1.34,15.86,1.76,23.81s.6,15.91.63,23.88-.26,16-.54,23.89c-.14,4-.26,7.94-.45,11.9l-.27,5.93q-.07,1.48-.1,2.95c0,.48,0,1,0,1.44,0,.24,0,.47,0,.68s0,.19,0,.27v.06a.24.24,0,0,0,0-.06l-.14-.26a1.21,1.21,0,0,0-.64-.48,1.33,1.33,0,0,0-1.22.18,1.21,1.21,0,0,0-.4.5l2.55.59c-.1,1.1-.26,2-.42,2.92s-.34,1.87-.52,2.79l-1.2,5.49a53.78,53.78,0,0,0-1.15,11.05l-.3,0a35,35,0,0,1-.55-5.66,45.53,45.53,0,0,1,.22-5.7c.21-1.92.5-3.73.71-5.59q.18-1.38.33-2.76c.09-.89.19-1.89.21-2.66l2.55.59a1.28,1.28,0,0,1-.43.53,1.42,1.42,0,0,1-1.27.2,1.5,1.5,0,0,1-.7-.56c-.2-.35-.12-.24-.16-.32l0-.12c0-.08,0-.17-.06-.24l0-.12c0-.17-.05-.34-.06-.47,0-.28,0-.55-.06-.81,0-.53,0-1-.06-1.54q0-1.52,0-3c0-2,0-4,.11-6s.16-4,.29-6,.24-4,.39-6q.46-6,.85-11.89t.51-11.88c.24-7.93.24-15.87.16-23.81s-.32-15.89-.79-23.82Z"/><path d="M209.35,407.12a22.61,22.61,0,0,0,2.35,1.64c.81.51,1.62,1,2.46,1.43s1.67.87,2.51,1.28,1.69.8,2.57,1.13a61.1,61.1,0,0,0,10.19,4.56,95.53,95.53,0,0,0,22,4.65,109.37,109.37,0,0,0,22.54-.17c3.74-.42,7.47-1,11.15-1.78,3.77-.35,7.54-.89,11.33-1.62a67.25,67.25,0,0,1-10.7,4.55c-3.78.81-7.61,1.4-11.45,1.83a112.36,112.36,0,0,1-23.16.17,98.49,98.49,0,0,1-22.7-4.8,68.56,68.56,0,0,1-10.68-4.75,45.32,45.32,0,0,1-4.57-3.72A25.28,25.28,0,0,1,209.35,407.12Z"/><path d="M255.67,412.68c2.86-.16,5.66-.37,8.43-.68a69.52,69.52,0,0,0,8.24,0,56,56,0,0,0,16-3.15c2.47-1,5-2.19,7.45-3.48s4.9-2.6,7.28-4,4.74-2.88,7-4.42c2.55-1.17,5.08-2.41,7.64-3.68a65.79,65.79,0,0,1-6,6.17q-3.53,2.36-7.19,4.51t-7.43,4.1a85.7,85.7,0,0,1-7.77,3.62A58.92,58.92,0,0,1,272.52,415,84.11,84.11,0,0,1,264,415,48.27,48.27,0,0,1,255.67,412.68Z"/><path d="M260.3,327.44a18.32,18.32,0,0,1,.93-2.25c.55-.49,1.08-1,1.63-1.5l3.24-3,3.24-3,1.62-1.51a22.24,22.24,0,0,1,2.3-.77,22.24,22.24,0,0,1-.94,2.24l-1.62,1.51-3.24,3-3.24,3c-.54.51-1.09,1-1.61,1.51A18.31,18.31,0,0,1,260.3,327.44Z"/><path d="M272.35,323.74a9.36,9.36,0,0,1,.48-1.54c.36-.21.7-.46,1-.69l2.08-1.39,2.08-1.39,1-.69a11.3,11.3,0,0,1,1.6.14,11.31,11.31,0,0,1-.49,1.53l-1,.69-2.08,1.39L275,323.18c-.34.24-.7.45-1,.7A9.36,9.36,0,0,1,272.35,323.74Z"/><path d="M230.66,209.78a31.86,31.86,0,0,0,2.58,6.81,38,38,0,0,0,3.82,6.13,43.37,43.37,0,0,0,10.39,9.8,51.74,51.74,0,0,0,12.77,6.33,44.29,44.29,0,0,0,6.88,1.64,31.34,31.34,0,0,0,3.49.33,21.71,21.71,0,0,0,3.37-.1h.23a27.48,27.48,0,0,0,3.47-.39,35.18,35.18,0,0,0,3.52-.8A47.57,47.57,0,0,0,288,237a56.43,56.43,0,0,0,12.34-7.81c.88-.83,1.83-1.59,2.66-2.47a32.51,32.51,0,0,0,2.37-2.74,28.52,28.52,0,0,0,5.75-13.29,25.88,25.88,0,0,0,.13-7.43,23.54,23.54,0,0,1,.71,7.51,27.17,27.17,0,0,1-1.48,7.5A31.46,31.46,0,0,1,301.9,231a54.67,54.67,0,0,1-12.68,8.62,48.42,48.42,0,0,1-7.24,2.73,38.1,38.1,0,0,1-3.79.9,25.76,25.76,0,0,1-4,.46l.23,0a23.86,23.86,0,0,1-4,.1,34.25,34.25,0,0,1-3.8-.4,41.59,41.59,0,0,1-7.35-1.86,50.1,50.1,0,0,1-13.2-7.11,41.67,41.67,0,0,1-10.24-10.86,36.47,36.47,0,0,1-3.38-6.63A28.2,28.2,0,0,1,230.66,209.78Z"/><path class="cls-7" d="M338.57,131.31s.23,12.8-6.24,20.4-12.44,10.5-12.44,10.5l2.8-36,4.48,2.56s5-5,7.69-3.19S338.57,131.31,338.57,131.31Z"/><path class="cls-7" d="M215.67,124.13s-3.32-3.07-6.26-2-4.69,5.41-3.56,11.43,4,15.17,7.6,17.87,9.44,4.32,9.44,4.32l1.19-13.41Z"/><polygon class="cls-7" points="305.6 188.59 291.86 181.21 275.09 177.54 251.62 180.08 231.76 185.41 219.68 162.31 217.45 155.49 217.4 151.97 215.18 122.17 216.55 92.13 227.13 70.18 233.66 60.63 247.87 48.75 258.69 45.81 317.4 65.54 332.68 90.88 330.44 125.04 329.58 134.66 323.26 166.15 315.05 186.31 305.6 188.59"/><path class="cls-8" d="M216.68,142.86s-5-26.06-7-44.26.73-25.9.73-25.9a9.2,9.2,0,0,0,5,7.91,102.86,102.86,0,0,1,5.91-25.75s8.13-12.73,13.39-15.17C234.26,47,237,48.89,237,48.89l2.55,1.31s-.84-13.39,1.93-19.63,11.82-14.33,15-14.89-.16,5.66,1.27,6.76,3.9-3.29,3.9-3.29,4.11-7.74,4.11-10.82S265.6.8,265.6.8,273,4.33,276.7,9.38A30.07,30.07,0,0,1,282,19.89c.36,1.47,1.9-4.24,1.76-5.13s5.78,4.78,6.83,7.81S293,31.14,293,31.14s2.3-4,3.64-5.73A18.82,18.82,0,0,1,300.72,22l-.21,7.61s7.1,9.59,11.14,12.95,8,12.45,8,12.45,2,2.57,2.81.81.22-7.69.22-7.69,3.8.35,7.67,6.53A69.58,69.58,0,0,1,336,65.31s.79.75-.3,10.68.92,7.72.92,7.72a3.34,3.34,0,0,0,2.5-2.44c.79-2.25-2.3,9.65-1.61,14s-.85,13-.85,13-2-2.08-1.87.19-.32,8.66-.32,8.66-1.46-2.88-1.51-1-.53,10.35-.53,10.35l-5.65,17.42L329.08,128s-.2-18.88-1.28-23.52a34.52,34.52,0,0,1-.53-9.9s-1.85-.46-1.57-1.83.39-5.25-.83-5-1.36-3.6-1.1-3.92-.91-2.05-3.06-3.49-1.92-3.7-4.92-3.62-4.7,0-5.81-.65,3.13-2,3.43-4-1.28-3.28-3.81.22-2.28,3.26-7.33,4.33-23.21,4.61-31.44,3.57-10.24-1.58-12.13-3.66-4.32-7.82-4.68-15-1.49-10.33-1.49-10.33-3.68,9.86-1.91,16.23,2.06,7.51,3.07,9.08-8.31-1-8.31-1-5.52-8.25-5.77-10.85-1.9,2.32-1.42,4.5a13.92,13.92,0,0,0,1.7,4.69c.93,1.65-.11,1.89-.11,1.89s-5.82-.43-8.11,2.2a66.34,66.34,0,0,0-5.83,7.56c-.8,1.44-4.81,9.64-4.81,9.64s-2.79,7.16-2.61,10.35-.72,15.85-.72,15.85-.22,11.82.09,14S216.68,142.86,216.68,142.86Z"/><path class="cls-8" d="M216.73,141.13s.12,34.13,3.51,43.94,22.41,32.59,22.41,32.59,7.9,11,18.88,12.19a80,80,0,0,0,20.32-.51s4.32-.09,16.1-11.86a186.06,186.06,0,0,0,19.66-23.2s5.6-7,6.89-18.6,2.22-31.84,2.22-31.84.22,14.09-7.16,23.06a91.88,91.88,0,0,1-15.32,14.69s-3.41,2.28-6.65-1.7-5.36-5.39-11.81-6.11a60.31,60.31,0,0,0-12.31,0s-2.58-.37-10.65-1.35a27.09,27.09,0,0,0-13.76,1.72,17.58,17.58,0,0,0-6,5.31c-2.15,3.34-6.65-1.59-6.65-1.59s-7.54-3.67-12.51-13.85-5.12-7.92-5.57-12.22S216.73,141.13,216.73,141.13Z"/><path d="M224.83,115.31a7.48,7.48,0,0,1,1-2.64,9.76,9.76,0,0,1,1.83-2.3,15.06,15.06,0,0,1,5.47-1.09,10.4,10.4,0,0,1,1.38,0l.68.06.58.07,2.29.27c1.54.17,3.12.37,4.7.61a49.83,49.83,0,0,1,9.49,2.32,35.41,35.41,0,0,1,4.56,2,18.11,18.11,0,0,1,2.74,4.69c-1.86-.1-3.47-.3-5.1-.28a30.41,30.41,0,0,0-3.92-1.75,44.88,44.88,0,0,0-8.53-2.07c-1.48-.23-3-.41-4.51-.58l-2.33-.27-.57-.07-.47,0a6.12,6.12,0,0,0-.94,0,8.57,8.57,0,0,0-3.57.74A13.06,13.06,0,0,0,224.83,115.31Z"/><path d="M285.73,121.08a6,6,0,0,1,.52-3.14,11.3,11.3,0,0,1,1.68-2.8,25,25,0,0,1,5.38-2l1.33-.3,1.23-.24,2.47-.48c1.65-.31,3.32-.61,5-.85a38.93,38.93,0,0,1,5.36-.44c.47,0,.94,0,1.41,0l.71.05c.24,0,.54.06.81.1a21.09,21.09,0,0,1,2.82.66c1.73.52,3.35,1.11,4.94,1.74a31,31,0,0,1,3.47,4.74c-2,.41-3.85.59-5.68.84-1.49-.59-3-1.14-4.43-1.57a11.78,11.78,0,0,0-4-.6,33.13,33.13,0,0,0-4.54.38c-1.56.22-3.16.51-4.77.81l-2.42.47-1.21.24-1.09.24a14.72,14.72,0,0,0-3.92,1.47A10.58,10.58,0,0,0,285.73,121.08Z"/><path class="cls-9" d="M233.37,128.35s3.07-5.58,11.65-5.34,11.33,6,11.33,6"/><path class="cls-9" d="M289.86,129.94s2.46-6.73,12.95-5.3,9.88,5.95,9.88,5.95"/><path class="cls-8" d="M244.59,128.1a6,6,0,0,1-3.46-.7c-1.43-.93-1.08,3.7,2.7,4.77a5.39,5.39,0,0,0,5.84-1.86s2.55-2.8.43-5.25a4.65,4.65,0,0,0-4.69-1.75C245.58,123.39,247.6,126.44,244.59,128.1Z"/><path class="cls-8" d="M297.41,124.64c-.24,0-1,2.32-.81,4.51s2.4,4,2.4,4,1.34,1.41,4.37.12,2.35-2.93,2.35-2.93-4,1-4.56-.13-1.69-2.23-.9-4.32S297.41,124.64,297.41,124.64Z"/><path d="M264.32,168.55c1.4.23,2.63.58,3.81.88a12.62,12.62,0,0,0,3.17.55c1.16,0,2.34-.06,3.58-.1a23.29,23.29,0,0,1,4,.13,10.42,10.42,0,0,1-3.46,2.18,11.24,11.24,0,0,1-4,.78,7.49,7.49,0,0,1-4.19-1.42A9.12,9.12,0,0,1,264.32,168.55Z"/><path class="cls-7" d="M271.31,180.76s11.78,1.58,16.72,4.6c6.8,5.7,1.81,6.77,1.81,6.77a8.88,8.88,0,0,1-4.18.64c-2.86-.08-11.64-.71-14.18-.88s-10.61,0-13,.12-4.93-.37-5.19-2.52-1-3.11,2.46-5.28a23.81,23.81,0,0,1,9.86-3.45A21,21,0,0,1,271.31,180.76Z"/><path class="cls-1" d="M271.89,538.22l6.49,7.41s1.85,3.71,17.6,5.56,31.5,11.12,31.5,11.12,5.56,2.78,15.75.93,15.75.93,15.75.93,5.56-2.78,3.71-5.56c.93-.93,4.63-1.85,4.63-1.85s3.71-4.63,1.85-7.41c1.85-4.63,5.56-4.63.93-11.12,7.41-5.56,2.78-11.12,2.78-11.12l3.71-7.41s0-7.41-9.27-7.41-9.88-.93-17-2.78-25.63-1.85-32.12-2.78-3.71-4.63-25-7.41S271.89,538.22,271.89,538.22Z"/><path d="M376.68,519.73a18.46,18.46,0,0,1-2,4.73,9.34,9.34,0,0,1-1.76,2,5.23,5.23,0,0,1-1.22.78,7.21,7.21,0,0,1-1.36.43,17.17,17.17,0,0,1-5.2.42,16.53,16.53,0,0,1-5-1.25l0-.2a31,31,0,0,1,5.06-.55c1.65-.1,3.3.15,4.89,0a5.85,5.85,0,0,0,1.08-.2,3.84,3.84,0,0,0,1-.47,8.19,8.19,0,0,0,1.73-1.59,20,20,0,0,0,2.65-4.2Z"/><path d="M374.24,534.41a4.52,4.52,0,0,1-1,1.84,11.71,11.71,0,0,1-1.47,1.48,12.75,12.75,0,0,1-1.71,1.23,6.76,6.76,0,0,1-2.1.78,8.79,8.79,0,0,1-4.3-.1,8.59,8.59,0,0,1-3.63-2.15l.09-.18c1.43,0,2.71.24,4,.38a25.91,25.91,0,0,0,3.67.46,5.34,5.34,0,0,0,1.73-.35,11.64,11.64,0,0,0,1.71-.88,7.26,7.26,0,0,0,2.85-2.55Z"/><path d="M371.75,543.14a10.37,10.37,0,0,1-.75,4.6,6.3,6.3,0,0,1-1.46,2,5.55,5.55,0,0,1-2.33,1.17,11.28,11.28,0,0,1-4.77.24,9.84,9.84,0,0,1-4.31-1.94l.07-.19c1.59,0,3,.1,4.49.14a36.39,36.39,0,0,0,4.26.17,4.1,4.1,0,0,0,1.79-.62,5.15,5.15,0,0,0,1.38-1.47,10.57,10.57,0,0,0,1.43-4.13Z"/><path d="M367.37,556.84a18.67,18.67,0,0,1-3.09,1.92,7.19,7.19,0,0,1-.9.35,5,5,0,0,1-1,.18c-.61.05-1.21.08-1.83.1a10.39,10.39,0,0,1-3.7-.28,5.37,5.37,0,0,1-3.1-2.26l.12-.16c1.25.23,2.29.34,3.42.47s2.19.48,3.34.63c.57.08,1.15.13,1.73.17a3.68,3.68,0,0,0,.77,0,6.08,6.08,0,0,0,.81-.15,23.14,23.14,0,0,0,3.32-1.14Z"/></g></g></svg>